<svg xmlns="http://www.w3.org/2000/svg" aria-hidden="true" viewBox="0 0 600 320"><style>.region { fill:#f4f4f0; stroke:#888; stroke-width:0.5 }</style><path class="region" d="M414.67,209.23L414.73,193.06L443.94,193.17L444.15,160.77L521.24,160.87L521.36,192.85L520.77,192.85L520.49,197.25L517.93,199.08L518.03,199.88L518.91,199.99L518.47,201.38L516.82,202.10L517.11,204.87L515.57,204.85L514.92,206.32L511.07,205.41L508.74,207.04L506.48,207.23L506.07,208.36L503.92,207.96L502.38,209.13L414.67,209.23Z" data-region="Adams" /><path class="region" d="M557.63,266.17L562.21,266.18L562.22,242.02L563.81,241.99L563.80,240.65L567.03,240.68L567.01,239.34L576.64,239.42L576.69,234.71L578.32,235.94L577.72,237.65L578.83,238.60L582.48,237.64L587.18,238.91L590.29,237.77L591.18,238.37L591.26,239.54L590.40,242.35L589.20,243.67L589.21,244.85L592.14,246.38L592.38,248.34L594.95,250.02L594.62,251.90L596.46,253.69L597.33,256.10L596.53,258.64L599.86,261.94L598.91,263.19L598.80,264.91L597.71,266.04L597.33,268.00L595.27,269.19L595.54,270.06L597.17,270.48L598.29,271.82L600.30,277.88L557.63,277.65L557.63,266.17Z" data-region="Asotin" /><path class="region" d="M376.53,257.61L376.47,219.34L380.40,219.55L388.82,217.45L394.78,217.99L398.61,215.50L403.40,210.24L405.43,210.91L408.58,213.99L408.12,215.40L411.37,217.10L412.51,221.19L422.27,229.44L423.07,232.19L422.24,243.21L423.69,248.35L422.48,250.87L422.51,252.12L427.24,255.69L434.06,256.97L441.55,261.16L445.04,265.36L445.06,266.76L446.99,270.57L446.58,273.06L447.04,274.96L440.58,280.31L433.08,283.67L427.83,284.13L423.17,283.01L415.05,284.71L408.56,285.10L405.71,286.12L402.93,285.91L399.38,284.35L395.46,286.18L391.94,290.69L376.93,292.63L377.13,265.70L377.06,257.61L376.53,257.61Z" data-region="Benton" /><path class="region" d="M277.76,101.63L278.33,100.50L277.72,100.00L279.03,97.66L278.81,96.54L280.07,95.20L280.17,94.20L282.36,92.75L282.38,91.90L279.71,88.72L283.96,86.53L285.02,86.79L289.02,85.26L290.09,85.57L292.71,83.76L293.38,82.45L295.30,82.00L293.93,80.10L294.66,78.43L298.30,77.39L297.41,74.88L293.96,72.94L294.34,71.42L290.38,66.60L291.25,65.62L291.02,64.79L285.89,63.08L286.06,61.13L288.22,60.31L288.01,58.82L286.27,56.09L287.10,54.32L288.15,54.45L287.80,53.74L288.49,52.44L288.20,51.26L286.70,50.39L287.02,48.43L288.56,46.68L295.00,46.28L295.04,43.51L298.52,44.06L298.57,43.15L299.97,42.71L301.65,43.46L302.09,41.83L303.51,41.54L305.64,43.41L305.16,44.43L307.34,45.59L313.28,44.08L313.84,43.32L317.61,42.83L317.24,45.57L319.41,46.49L317.50,47.93L319.10,49.02L316.36,50.89L317.57,51.98L317.76,54.12L318.41,54.46L317.79,55.66L319.97,55.60L324.35,58.19L324.57,59.09L322.65,61.12L322.56,62.86L325.56,64.12L328.35,63.69L329.22,65.20L331.82,67.06L331.47,67.61L337.28,70.04L337.99,72.15L340.06,72.28L340.76,73.99L339.55,77.25L340.59,79.14L342.78,80.98L344.99,80.54L350.84,85.18L356.07,86.43L357.00,87.37L355.69,87.65L355.88,89.03L360.14,90.82L360.83,93.13L362.13,94.20L361.94,95.60L363.28,96.13L376.75,96.14L377.57,97.86L373.58,101.32L373.89,103.64L373.39,104.72L369.98,106.75L368.59,110.92L367.19,112.80L360.36,114.39L357.06,113.15L351.24,115.60L350.10,118.08L351.90,121.87L349.03,126.54L349.29,129.70L347.42,133.21L345.33,134.60L344.04,136.87L342.89,142.64L344.80,147.94L347.81,149.68L357.13,151.10L360.18,153.40L360.66,154.11L359.81,160.73L337.51,160.84L336.24,159.62L334.71,159.61L332.16,157.20L327.97,155.36L327.26,154.15L326.71,154.53L327.00,155.68L324.80,156.62L323.81,156.22L323.15,153.77L320.29,153.04L316.69,153.22L312.38,150.71L311.38,148.55L307.66,147.98L306.18,145.85L304.25,145.78L303.13,146.90L297.50,145.26L296.55,142.64L294.93,142.26L295.35,141.27L292.57,139.39L291.56,137.01L289.52,136.53L285.61,134.00L284.48,132.27L284.33,130.85L282.71,129.73L282.21,128.41L282.70,127.49L281.18,125.26L281.98,123.62L281.55,122.43L284.47,119.97L286.22,119.65L286.30,118.97L284.97,118.13L284.69,117.60L285.32,116.61L284.19,114.85L282.91,114.83L283.15,114.06L282.17,112.59L284.89,110.27L285.94,108.19L282.83,108.26L279.68,106.79L280.16,105.66L279.40,103.37L278.03,103.04L277.76,101.63Z" data-region="Chelan" /><path class="region" d="M18.96,57.63L18.96,56.83L19.45,57.53L18.96,57.63Z M15.01,101.25L15.46,101.05L15.44,101.35L15.01,101.25Z M8.87,77.20L11.04,75.43L11.64,74.12L12.08,72.16L10.90,70.30L12.51,68.88L12.80,66.85L12.38,65.91L12.80,64.96L13.93,64.80L14.46,61.87L13.61,60.92L11.65,60.64L8.94,57.23L10.07,56.44L14.89,56.35L16.21,56.58L17.27,58.47L19.62,57.93L21.58,58.46L23.54,60.13L26.86,61.33L35.04,66.06L37.19,65.91L43.21,68.91L46.26,68.21L54.42,72.08L56.61,72.43L56.16,73.98L60.47,76.05L65.75,77.25L74.99,78.22L77.42,77.58L78.90,78.17L84.74,77.22L85.62,77.81L86.54,77.37L86.30,76.99L91.35,78.24L92.40,79.60L95.27,80.00L98.28,78.48L101.60,80.30L106.67,79.35L109.46,79.41L105.01,80.03L107.84,81.57L114.80,82.04L118.16,81.29L121.88,81.55L129.02,76.21L132.27,75.38L129.96,76.33L129.22,77.96L131.52,78.76L135.52,81.94L136.90,84.69L136.44,87.15L139.44,90.34L140.27,89.94L139.19,87.46L139.66,86.59L138.34,84.71L141.53,83.61L146.41,83.78L145.45,86.45L143.82,86.46L143.82,104.80L101.70,104.80L101.70,103.48L18.10,103.53L16.63,102.43L15.78,101.01L15.48,98.47L14.25,97.43L14.09,95.87L13.15,95.53L13.56,94.12L12.45,87.93L11.61,86.08L12.33,83.36L8.87,77.20Z M7.83,56.29L8.53,55.90L8.91,56.34L7.83,56.29Z M7.67,78.16L7.46,77.64L7.91,78.10L7.67,78.16Z M6.63,76.25L7.14,76.25L7.17,76.38L6.63,76.25Z" data-region="Clallam" /><path class="region" d="M155.44,295.03L156.20,291.28L157.13,290.64L159.54,289.43L161.11,289.74L160.17,287.14L158.93,287.05L159.82,286.53L159.64,285.34L160.87,285.07L161.18,283.63L163.36,284.10L163.17,282.87L165.97,284.12L166.92,283.20L169.08,283.41L171.73,281.65L173.39,281.80L175.33,279.97L175.20,279.38L178.04,279.24L178.00,278.66L181.40,278.85L182.18,279.69L185.48,280.00L187.25,281.14L189.65,281.20L191.82,278.30L190.76,276.46L191.62,276.29L192.05,274.79L193.34,273.94L193.36,272.91L194.98,271.96L197.03,272.48L196.80,319.28L190.55,319.24L188.94,317.28L186.86,316.68L182.45,317.82L174.16,314.75L164.56,312.78L157.85,309.17L157.04,307.01L158.13,302.02L158.02,299.73L157.41,297.75L155.44,295.03Z" data-region="Clark" /><path class="region" d="M500.01,225.63L501.03,225.63L500.99,222.58L506.04,226.15L509.67,225.91L511.26,224.32L517.37,223.08L521.81,222.70L526.47,223.32L527.13,222.91L527.81,220.53L529.49,219.68L528.62,233.93L538.16,233.85L538.15,236.58L539.73,236.60L539.74,240.68L541.36,240.68L541.37,242.01L542.95,242.01L542.88,246.23L547.65,246.15L547.60,266.24L548.30,266.24L548.29,277.56L518.52,277.38L518.93,258.25L509.46,258.22L509.50,250.13L499.99,250.17L500.01,225.63Z" data-region="Columbia" /><path class="region" d="M123.85,261.50L123.48,241.79L131.33,241.57L197.52,241.81L197.03,272.48L194.98,271.96L193.36,272.91L193.34,273.94L192.05,274.79L191.62,276.29L190.76,276.46L191.82,278.30L189.65,281.20L187.25,281.14L185.48,280.00L182.18,279.69L181.40,278.85L178.00,278.66L178.04,279.24L175.20,279.38L175.33,279.97L173.39,281.80L171.73,281.65L169.08,283.41L166.92,283.20L165.97,284.12L163.17,282.87L163.36,284.10L161.18,283.63L160.87,285.07L159.64,285.34L159.82,286.53L158.93,287.05L160.17,287.14L161.11,289.74L159.40,289.47L156.20,291.28L156.24,289.69L154.24,285.53L154.64,283.71L154.05,281.07L149.20,274.56L148.72,271.88L147.23,269.71L142.80,267.76L139.65,265.08L131.21,260.32L127.38,259.98L123.85,261.50Z" data-region="Cowlitz" /><path class="region" d="M342.92,142.17L344.08,136.76L344.81,135.20L347.33,133.32L348.70,131.18L349.29,129.70L349.03,126.54L351.90,121.87L350.10,118.08L350.64,116.45L352.48,114.73L357.06,113.15L360.36,114.39L367.51,112.54L369.98,106.75L373.39,104.72L373.89,103.64L373.58,101.32L377.57,97.86L375.74,94.99L376.89,92.45L376.86,90.79L374.88,87.86L378.32,85.57L383.54,84.44L384.10,82.82L386.59,83.20L388.00,84.86L390.89,83.88L391.95,85.85L390.14,89.52L390.36,90.18L393.08,92.39L395.66,92.78L397.60,90.56L402.97,87.21L403.57,85.57L404.72,84.86L409.28,85.21L412.19,87.82L416.80,87.88L417.81,85.99L417.84,83.55L419.37,82.15L420.52,81.85L423.51,83.00L432.71,78.50L435.18,79.75L438.40,79.86L440.39,81.92L442.27,88.39L446.35,90.74L443.97,96.00L434.76,96.02L434.76,97.42L433.12,97.41L433.10,100.13L431.47,100.13L431.47,101.49L428.21,101.51L428.20,102.86L426.57,102.87L426.55,110.92L424.93,110.92L424.91,113.57L423.26,113.60L423.27,116.30L421.65,116.29L421.65,117.62L420.03,117.61L420.01,122.97L418.40,122.98L418.39,127.00L416.79,127.01L416.76,128.33L411.96,128.31L411.96,129.57L410.33,129.57L410.33,130.89L408.74,130.88L408.75,132.21L407.13,132.18L407.12,133.49L405.54,133.50L405.51,134.84L403.88,134.84L403.91,136.17L402.30,136.16L402.25,144.17L376.36,144.51L376.36,147.21L374.74,147.24L374.73,148.58L373.11,148.58L373.10,151.26L371.48,151.27L371.47,152.65L369.89,152.71L369.85,153.99L368.23,154.02L368.24,155.34L366.60,155.38L366.43,164.61L365.52,164.01L361.45,164.18L360.13,162.84L359.67,161.42L360.43,153.62L357.13,151.10L349.07,149.94L345.28,148.61L342.92,142.17Z" data-region="Douglas" /><path class="region" d="M452.49,32.02L454.96,32.01L454.99,-0.03L503.35,-0.04L503.54,0.28L501.64,0.24L502.71,1.16L502.05,1.29L501.51,2.73L502.60,3.41L501.51,5.82L503.46,8.02L502.38,9.39L502.12,11.29L503.27,12.28L503.49,14.73L505.34,15.90L506.16,19.12L507.45,20.41L508.69,19.77L509.05,20.42L508.10,20.89L508.80,22.05L508.17,22.44L509.03,23.13L508.54,24.05L509.36,24.30L508.76,25.46L509.26,26.00L509.41,30.08L510.34,32.05L508.68,35.79L508.79,38.43L507.46,41.78L507.55,43.77L505.05,44.27L503.97,47.94L502.23,50.16L502.93,51.59L502.96,54.86L504.52,58.00L505.00,62.94L507.69,67.67L506.81,70.23L503.54,72.83L504.09,74.07L503.41,74.86L503.81,77.82L503.42,79.05L499.04,80.60L499.10,82.04L500.32,82.79L500.80,84.32L500.26,87.10L498.27,87.10L497.44,88.73L491.13,87.91L487.84,90.05L489.88,92.50L490.24,93.82L491.90,95.10L491.34,99.02L492.56,101.72L491.27,107.14L490.43,107.93L488.58,108.14L484.55,106.77L483.77,105.94L483.16,103.41L480.51,104.15L477.49,103.80L477.13,102.79L477.92,100.36L475.13,98.75L469.30,99.37L468.20,98.27L465.88,97.84L464.74,98.63L464.44,101.42L462.64,101.69L456.86,99.86L455.53,98.67L455.12,96.81L453.82,96.38L454.29,95.86L454.43,47.94L452.49,47.92L452.49,32.02Z" data-region="Ferry" /><path class="region" d="M408.05,214.92L414.69,214.73L414.67,209.23L502.38,209.13L499.43,209.70L501.83,214.65L500.83,216.75L501.99,219.00L503.17,219.73L503.28,220.88L502.53,221.07L501.97,222.99L499.80,221.90L496.84,222.55L494.52,221.34L490.92,222.15L488.80,223.76L486.27,223.47L483.30,222.09L482.28,222.41L480.72,224.23L476.82,226.04L475.51,227.98L473.78,228.56L471.71,230.79L471.45,233.59L470.01,237.37L470.28,239.30L465.99,242.21L465.25,244.16L461.83,244.21L460.64,247.35L459.74,248.04L460.06,250.27L455.71,251.25L452.95,254.21L444.40,255.49L440.85,257.42L439.48,259.64L433.56,256.80L427.24,255.69L422.51,252.12L422.48,250.87L423.69,248.35L422.24,243.21L423.07,232.19L422.27,229.44L419.53,227.57L417.67,225.18L414.83,223.57L411.96,220.48L411.37,217.10L408.05,214.92Z" data-region="Franklin" /><path class="region" d="M528.76,225.64L529.39,225.65L529.49,219.68L531.91,219.91L534.00,219.24L535.50,217.77L536.73,214.16L537.89,213.22L544.17,212.53L546.99,214.93L548.72,215.26L552.36,214.54L555.03,214.82L557.96,212.68L559.13,212.99L561.21,216.47L564.73,217.37L564.73,220.22L567.77,223.30L571.14,224.05L574.76,227.12L576.44,231.16L575.84,233.33L576.69,234.71L576.64,239.42L567.01,239.34L567.03,240.68L563.80,240.65L563.81,241.99L562.22,242.02L562.21,266.18L557.63,266.17L557.63,277.65L548.29,277.56L548.30,266.24L547.60,266.24L547.65,246.15L542.88,246.23L542.95,242.01L541.37,242.01L541.36,240.68L539.74,240.68L539.73,236.60L538.15,236.58L538.16,233.85L528.62,233.93L528.76,225.64Z" data-region="Garfield" /><path class="region" d="M363.76,177.92L366.96,172.33L366.12,169.48L366.78,165.55L366.60,155.38L368.24,155.34L368.23,154.02L369.85,153.99L369.89,152.71L371.47,152.65L371.48,151.27L373.10,151.26L373.11,148.58L374.73,148.58L374.74,147.24L376.36,147.21L376.36,144.51L402.25,144.17L402.30,136.16L403.91,136.17L403.88,134.84L405.51,134.84L405.54,133.50L407.12,133.49L407.13,132.18L408.75,132.21L408.74,130.88L410.33,130.89L410.33,129.57L411.96,129.57L411.96,128.31L416.76,128.33L416.79,127.01L418.39,127.00L418.40,122.98L420.01,122.97L420.03,117.61L421.65,117.62L421.65,116.29L423.27,116.30L423.26,113.60L424.91,113.57L424.93,110.92L426.55,110.92L426.57,102.87L428.20,102.86L428.21,101.51L431.47,101.49L431.47,100.13L433.10,100.13L433.12,97.41L434.76,97.42L434.76,96.02L443.97,96.00L443.93,97.13L444.68,97.94L443.94,193.17L414.73,193.06L414.69,214.73L408.33,214.64L408.40,213.72L405.87,211.27L403.54,210.16L398.61,215.50L395.29,217.83L392.75,218.24L388.82,217.45L385.80,218.67L377.05,219.50L374.41,218.67L371.18,215.19L369.03,210.57L369.23,207.63L371.27,205.81L372.59,202.41L369.69,198.32L369.55,190.22L366.88,185.56L366.26,181.53L364.12,179.53L363.76,177.92Z" data-region="Grant" /><path class="region" d="M73.05,188.13L74.54,188.19L75.40,188.79L74.87,189.03L73.05,188.13Z M37.46,135.63L60.79,135.61L60.78,137.02L101.70,137.09L101.76,161.06L102.84,161.09L102.98,177.33L124.70,177.10L124.61,185.25L127.99,185.35L127.82,204.08L56.87,204.02L56.14,200.10L53.85,193.71L55.08,193.69L55.55,193.00L57.28,194.07L57.56,197.21L58.78,197.78L60.14,196.95L60.81,194.78L65.44,192.19L67.53,192.25L76.50,189.23L74.97,187.97L68.33,187.86L67.40,186.66L63.39,186.34L62.82,185.79L63.92,184.61L62.94,184.10L62.32,182.18L59.71,180.96L55.08,181.12L53.61,181.72L52.87,183.02L53.91,185.05L53.87,187.66L54.67,190.01L56.02,189.85L56.27,190.75L54.06,190.19L51.16,191.70L51.52,185.48L50.39,172.45L46.43,158.40L44.83,156.85L43.17,156.83L41.62,152.75L40.15,152.09L38.75,146.87L37.46,135.63Z" data-region="Grays Harbor" /><path class="region" d="M174.86,73.09L175.77,69.20L177.52,68.71L179.25,69.21L180.53,67.46L184.96,69.18L185.77,71.23L181.62,70.97L181.32,71.51L182.19,73.12L179.43,75.09L179.39,76.24L182.17,80.38L186.92,84.40L188.64,87.24L186.25,86.60L185.32,84.60L183.58,82.96L181.83,82.39L180.26,80.43L178.56,81.33L177.01,80.26L174.99,75.49L175.39,74.86L174.86,73.09Z M157.38,71.44L158.70,68.43L160.25,66.64L160.96,64.35L164.66,59.68L165.35,55.35L168.40,55.45L169.50,54.42L170.49,54.97L170.59,55.75L171.37,55.94L171.74,57.82L170.46,59.59L173.92,60.84L176.60,62.85L177.36,64.95L175.46,66.36L173.44,66.65L173.38,67.31L173.39,66.40L172.14,65.21L168.84,65.28L168.22,65.76L168.67,66.32L168.44,67.57L167.89,67.78L166.93,66.95L167.78,66.07L166.99,65.77L165.49,66.81L166.26,67.97L165.80,69.87L161.47,70.65L160.23,71.57L161.07,72.71L166.59,71.50L169.75,73.22L172.67,78.74L173.44,81.58L172.37,83.04L174.30,85.46L174.11,87.52L175.01,88.57L174.66,90.84L176.45,90.41L177.08,88.81L176.46,86.62L176.97,85.52L175.88,83.56L178.43,83.51L181.96,87.70L187.17,89.30L187.52,92.46L188.83,93.92L189.19,96.30L188.49,98.27L187.12,99.54L187.09,101.18L186.10,101.21L185.72,99.69L184.43,100.53L183.02,100.37L181.93,98.94L182.29,96.94L181.84,95.89L179.87,93.55L177.71,93.68L174.26,95.52L173.87,94.92L174.56,92.82L171.62,91.52L169.68,89.62L170.72,88.12L169.18,85.75L170.37,82.26L169.28,78.07L166.75,77.31L164.22,78.14L163.20,75.70L157.90,72.57L157.38,71.44Z M151.93,63.18L151.89,62.77L152.22,62.92L151.93,63.18Z" data-region="Island" /><path class="region" d="M144.25,81.12L145.44,80.21L146.81,80.78L144.87,81.27L144.25,81.12Z M27.15,122.63L27.61,122.31L27.95,122.10L27.71,122.81L27.15,122.63Z M25.87,111.22L25.94,111.06L26.15,111.27L25.87,111.22Z M18.10,103.53L101.70,103.48L101.70,104.80L143.82,104.80L143.82,86.46L145.45,86.45L149.41,88.20L150.69,90.85L150.00,92.21L148.42,93.20L151.39,92.82L152.57,91.60L153.07,88.22L148.36,85.36L149.15,84.00L148.68,82.76L152.24,79.86L158.55,79.14L157.95,80.35L158.97,81.66L156.53,82.75L155.00,84.39L157.73,87.16L157.34,88.06L157.75,88.73L159.66,89.60L160.08,89.25L159.47,87.92L159.70,86.09L159.02,85.82L160.16,84.05L163.61,83.12L163.22,84.41L163.99,88.52L165.01,89.56L164.90,90.86L163.40,91.66L161.64,90.15L160.33,90.51L161.31,93.62L164.28,95.45L164.03,99.76L162.73,100.00L164.39,100.23L165.87,98.85L166.63,102.11L169.46,102.90L168.76,103.81L168.07,103.63L167.35,104.93L163.15,104.69L164.07,106.32L163.63,108.12L161.67,109.68L159.42,110.07L158.41,115.49L156.35,118.16L156.38,119.89L157.21,121.00L154.41,121.87L152.59,120.93L153.22,119.23L154.08,118.78L154.38,115.85L155.11,114.85L156.01,110.60L155.36,110.00L155.29,108.59L153.85,107.24L153.20,108.97L153.97,110.29L153.45,112.00L151.06,112.83L151.53,110.89L150.22,110.55L149.96,111.08L150.31,113.89L151.34,114.61L151.24,116.67L150.00,116.12L149.53,117.44L148.85,117.35L148.33,119.68L149.19,121.15L147.07,122.91L147.23,125.26L145.47,124.76L144.39,126.55L141.37,128.27L141.34,128.86L101.70,129.05L101.70,137.09L60.78,137.02L60.79,135.61L37.46,135.63L35.39,126.49L31.74,115.95L29.97,114.19L27.99,114.01L28.61,113.57L27.26,109.41L23.38,107.83L23.49,107.11L22.09,106.02L21.76,104.86L19.81,103.78L18.12,104.35L18.10,103.53Z" data-region="Jefferson" /><path class="region" d="M182.58,123.77L184.68,122.84L185.11,120.44L187.15,118.70L186.87,114.82L185.73,113.02L282.28,112.84L283.15,114.06L282.91,114.83L284.19,114.85L285.32,116.61L284.69,117.60L284.97,118.13L286.30,118.97L286.22,119.65L284.47,119.97L281.55,122.43L281.98,123.62L281.18,125.26L282.74,127.74L282.21,128.41L282.89,129.50L282.28,130.23L278.27,130.40L278.37,131.70L277.67,132.72L273.98,132.66L272.92,135.41L269.21,137.48L269.31,138.28L267.73,140.62L263.76,141.99L262.61,142.94L262.16,144.79L258.96,146.07L259.36,147.16L258.49,148.07L259.05,148.94L257.92,149.42L258.17,150.57L256.04,150.94L256.27,152.32L258.74,154.07L257.60,156.32L258.54,156.75L258.95,158.24L259.90,157.85L263.06,158.61L263.94,157.97L265.48,158.96L266.18,161.16L264.00,162.73L263.67,164.20L267.75,165.76L268.12,167.61L267.26,168.97L268.77,171.20L267.42,172.59L263.71,171.86L261.49,172.69L260.42,174.05L261.11,175.36L260.81,175.85L262.79,176.77L257.87,177.17L252.78,173.66L247.24,173.99L243.71,170.81L241.20,170.17L239.50,171.12L236.89,171.00L232.42,168.93L231.09,168.95L227.78,171.71L223.08,170.58L220.56,172.19L219.59,171.76L219.26,170.68L216.28,169.87L216.10,169.01L212.00,169.12L210.84,167.78L208.45,166.92L206.87,164.97L206.87,163.58L206.14,163.49L206.33,162.85L204.74,161.15L190.30,161.15L184.04,155.34L190.86,153.00L191.13,150.69L190.87,148.38L189.30,146.50L188.77,144.10L186.65,143.30L187.79,142.50L188.27,140.09L185.83,137.83L185.50,134.09L183.77,131.70L186.35,129.88L187.63,131.04L189.69,130.29L189.95,129.56L187.63,127.15L184.26,125.80L182.58,123.77Z M175.68,153.01L176.57,150.07L175.78,148.11L176.69,146.68L177.13,142.32L179.11,140.29L179.57,137.70L181.04,138.19L181.41,138.41L180.83,139.94L182.85,141.83L182.11,143.03L183.11,145.79L182.35,146.40L182.52,147.29L187.37,149.02L182.51,151.16L181.02,153.29L179.65,152.87L179.74,151.76L180.54,150.28L181.35,150.52L182.86,149.08L182.38,147.59L180.83,147.83L180.49,148.84L181.43,148.42L181.97,148.96L179.00,149.82L178.33,154.43L176.38,154.14L175.68,153.01Z" data-region="King" /><path class="region" d="M177.43,134.42L178.45,134.53L179.36,134.86L178.63,136.00L177.43,134.42Z M170.93,123.63L172.44,122.57L172.45,123.58L172.83,123.38L172.97,119.30L173.81,118.31L175.67,120.23L175.89,119.53L176.96,119.43L177.52,120.75L177.15,122.93L177.97,123.76L176.42,124.67L178.63,126.41L178.27,127.50L177.46,127.08L175.85,127.70L177.78,127.83L177.92,129.74L176.59,129.87L179.30,131.03L176.42,131.88L174.18,129.14L172.69,130.34L172.26,129.98L171.92,125.44L170.93,123.63Z M138.18,136.85L141.84,133.22L142.61,130.84L145.82,129.67L146.25,127.56L149.93,126.41L152.02,124.62L153.04,124.56L152.35,126.03L158.70,123.21L159.27,121.82L159.02,118.57L161.55,113.99L163.19,113.20L164.03,110.90L168.48,107.63L169.63,105.74L172.23,105.66L171.13,100.54L168.89,99.40L168.95,98.13L169.95,97.99L170.83,99.65L175.89,100.59L175.83,101.74L176.85,103.42L177.34,108.05L179.13,109.55L177.66,111.84L179.97,114.13L179.94,115.62L178.68,116.20L173.69,116.00L174.05,117.37L171.16,121.05L170.00,120.59L169.28,119.13L167.89,119.55L169.14,120.09L168.81,124.76L170.91,126.19L170.38,129.24L170.87,129.98L169.67,132.33L168.63,132.13L168.24,133.09L164.77,134.42L162.79,136.26L169.76,134.39L172.53,130.99L174.00,130.49L174.44,131.60L173.82,132.27L175.32,132.67L174.48,133.58L174.80,134.67L174.23,136.55L176.21,136.57L178.16,137.71L175.36,141.58L175.39,145.31L173.96,147.66L155.02,147.65L155.03,136.84L138.18,136.85Z" data-region="Kitsap" /><path class="region" d="M256.04,150.94L258.17,150.57L257.92,149.42L259.05,148.94L258.49,148.07L259.36,147.16L258.96,146.07L262.16,144.79L262.61,142.94L263.76,141.99L267.73,140.62L269.31,138.28L269.21,137.48L272.92,135.41L273.98,132.66L277.67,132.72L278.37,131.70L278.27,130.40L282.21,130.28L282.54,129.68L284.33,130.85L284.48,132.27L285.61,134.00L289.52,136.53L291.56,137.01L292.57,139.39L295.35,141.27L294.93,142.26L296.55,142.64L297.50,145.26L303.13,146.90L304.25,145.78L306.18,145.85L307.66,147.98L311.38,148.55L312.38,150.71L316.69,153.22L320.29,153.04L323.15,153.77L323.81,156.22L324.44,156.53L327.00,155.68L326.82,154.05L327.97,155.36L332.16,157.20L334.71,159.61L336.24,159.62L337.51,160.84L359.81,160.73L359.98,162.56L361.21,164.08L365.52,164.01L366.66,164.99L366.12,169.48L366.85,173.17L366.06,174.63L364.88,175.24L363.79,178.77L366.26,181.53L366.88,185.56L369.55,190.22L369.61,198.03L372.44,201.89L372.45,203.61L371.27,205.81L369.23,207.63L369.00,209.28L328.37,209.21L328.48,201.17L318.99,201.08L318.95,193.10L289.28,193.17L288.09,192.17L288.09,191.17L287.29,191.17L286.09,189.82L286.09,188.81L284.49,187.81L284.49,185.80L281.96,185.07L281.03,183.38L277.55,180.87L276.59,180.90L274.80,178.96L270.06,176.76L267.75,177.86L265.03,177.69L263.82,178.39L262.29,176.18L260.81,175.85L261.11,175.36L260.42,174.05L261.49,172.69L263.71,171.86L265.96,172.70L268.35,172.12L268.77,171.20L267.26,168.97L268.11,167.14L267.27,165.35L263.67,164.20L264.00,162.73L266.18,161.16L265.48,158.96L263.94,157.97L263.06,158.61L259.90,157.85L258.95,158.24L258.54,156.75L257.60,156.32L258.74,154.07L256.27,152.32L256.04,150.94Z" data-region="Kittitas" /><path class="region" d="M245.20,297.57L244.98,273.38L377.11,273.68L376.93,292.63L369.55,293.70L361.65,297.33L356.27,298.44L354.06,299.47L351.01,302.80L330.46,305.72L328.69,305.20L324.63,301.66L322.23,300.90L318.92,300.96L314.80,303.74L302.22,307.83L299.20,310.48L297.85,310.75L295.54,309.23L292.55,309.98L286.43,309.59L284.87,310.02L282.21,312.31L282.44,312.78L280.29,313.72L277.39,313.86L276.43,312.91L276.14,309.84L274.97,307.86L265.74,304.74L259.25,305.76L251.68,302.90L251.83,300.74L250.59,298.64L252.38,297.61L245.20,297.57Z" data-region="Klickitat" /><path class="region" d="M111.91,204.20L127.82,204.08L127.80,206.77L200.27,206.88L213.83,208.80L215.02,207.86L217.21,208.62L219.10,207.63L220.93,209.03L227.36,210.09L228.29,209.98L231.70,206.26L233.90,204.97L256.86,204.97L257.89,207.33L259.20,207.48L258.84,209.09L260.58,210.18L263.39,210.30L264.58,211.61L262.56,212.55L262.80,213.97L261.11,213.82L260.03,214.95L259.78,217.16L261.40,217.73L262.06,218.63L262.03,220.04L260.49,221.70L260.60,223.60L259.17,224.74L260.07,225.79L259.77,226.75L257.18,228.08L256.80,229.67L257.24,230.89L259.28,231.89L258.32,233.44L260.10,234.93L260.48,237.70L262.05,239.48L261.29,241.55L257.46,241.87L112.86,241.94L111.91,204.20Z" data-region="Lewis" /><path class="region" d="M444.15,160.77L444.63,97.72L454.22,96.40L455.12,96.81L455.53,98.67L456.86,99.86L463.03,101.72L464.44,101.42L464.74,98.63L465.88,97.84L468.20,98.27L469.30,99.37L475.13,98.75L477.92,100.36L477.13,102.79L477.49,103.80L480.51,104.15L483.16,103.41L483.77,105.94L484.55,106.77L489.27,108.17L491.27,107.14L491.81,103.35L492.49,102.26L493.94,102.08L494.40,100.81L499.29,97.77L502.35,97.55L504.87,100.65L504.78,101.55L506.16,101.99L506.13,103.11L507.41,103.15L508.99,105.69L509.26,107.88L510.94,108.35L512.37,110.98L514.64,111.70L515.56,110.73L517.27,110.47L519.11,107.78L523.41,108.80L524.87,107.73L526.89,107.44L527.33,106.57L531.83,108.60L531.63,160.90L444.15,160.77Z" data-region="Lincoln" /><path class="region" d="M101.76,161.06L101.70,129.05L141.34,128.86L137.70,133.85L138.06,134.24L137.64,135.03L136.30,136.03L135.63,138.66L132.31,142.11L131.32,142.12L131.52,143.31L129.27,147.64L128.82,150.27L128.03,150.65L127.90,152.20L130.66,153.73L131.66,153.30L132.18,151.90L137.68,152.51L141.99,149.78L146.68,148.99L149.99,145.94L147.45,145.98L147.22,146.65L141.68,148.33L138.98,149.95L137.74,151.78L133.80,150.31L131.61,150.49L130.88,148.76L133.50,144.16L137.42,139.27L138.18,136.85L155.03,136.84L155.03,151.80L153.96,150.59L153.96,148.09L152.96,147.50L153.29,148.76L152.62,150.16L153.23,150.78L153.48,152.90L152.88,154.01L153.61,154.65L152.72,155.91L152.58,154.98L150.99,156.34L151.52,157.50L149.70,159.37L150.33,159.99L149.79,161.98L150.60,161.81L150.20,162.84L152.14,165.58L150.33,169.20L150.69,169.45L147.27,170.40L146.68,168.70L144.52,167.41L142.91,169.76L139.55,171.20L138.36,174.05L134.40,175.15L134.29,177.13L102.98,177.33L102.84,161.09L101.76,161.06Z" data-region="Mason" /><path class="region" d="M300.22,2.04L301.59,1.80L302.53,-0.03L454.99,-0.03L454.96,32.01L452.49,32.02L452.49,47.92L454.43,47.94L454.29,95.86L450.14,97.30L445.87,97.96L444.28,97.55L443.95,95.34L445.35,93.79L446.35,90.74L442.27,88.39L440.39,81.92L438.40,79.86L435.18,79.75L432.71,78.50L423.51,83.00L420.52,81.85L419.37,82.15L417.84,83.55L417.81,85.99L416.80,87.88L412.19,87.82L409.28,85.21L404.72,84.86L403.57,85.57L402.97,87.21L397.60,90.56L395.66,92.78L393.08,92.39L390.36,90.18L390.14,89.52L391.95,85.85L390.89,83.88L388.00,84.86L386.59,83.20L384.10,82.82L383.54,84.44L378.98,85.31L374.88,87.86L376.86,90.79L376.89,92.45L375.74,94.84L376.75,96.14L363.28,96.13L361.94,95.60L362.13,94.20L360.83,93.13L360.14,90.82L355.88,89.03L355.69,87.65L357.00,87.37L356.14,86.48L350.84,85.18L344.87,80.48L342.22,80.55L339.63,77.91L340.76,73.99L340.06,72.28L337.99,72.15L337.28,70.04L331.47,67.61L331.82,67.06L329.22,65.20L328.35,63.69L325.56,64.12L322.56,62.86L322.65,61.12L324.57,59.09L324.35,58.19L319.97,55.60L317.79,55.66L318.41,54.46L317.76,54.12L317.57,51.98L316.36,50.89L319.04,49.19L317.54,47.61L319.41,46.49L317.24,45.57L317.86,43.21L313.84,43.32L313.34,42.38L313.96,40.78L314.90,40.42L314.87,39.24L312.54,37.32L311.33,38.78L309.42,38.59L307.67,36.82L307.32,34.67L308.57,33.05L309.89,32.60L310.23,31.51L312.69,31.03L312.59,30.10L313.74,28.03L315.51,28.27L315.65,26.10L317.34,25.49L315.65,24.50L313.25,21.10L312.07,20.96L311.32,19.75L310.79,16.46L311.63,13.41L311.33,12.54L308.68,10.93L309.25,9.29L308.54,8.63L308.55,6.80L309.82,6.27L309.65,5.15L308.71,4.13L306.49,3.76L304.03,5.71L302.73,4.08L300.32,3.08L300.22,2.04Z" data-region="Okanogan" /><path class="region" d="M56.87,204.02L111.91,204.20L112.86,241.94L85.00,241.86L84.85,250.75L83.21,250.45L81.97,252.16L78.98,251.23L78.03,252.51L75.74,253.36L73.73,255.28L70.13,254.17L66.24,249.43L64.22,248.48L62.76,248.26L60.58,250.10L61.13,251.93L58.43,252.27L58.27,249.75L59.42,247.22L59.97,239.60L60.00,231.83L59.05,219.13L59.44,218.15L60.46,217.76L61.64,218.64L60.35,220.11L62.53,223.58L62.52,230.09L61.91,231.55L63.16,242.43L63.77,243.10L67.82,242.42L68.10,239.51L66.93,239.66L66.93,237.39L64.94,235.95L64.87,232.27L65.90,231.46L66.52,233.49L68.66,234.43L68.66,232.34L69.86,231.74L70.04,230.18L70.86,229.88L71.32,230.51L72.22,229.91L72.39,227.55L72.17,226.57L70.17,224.72L69.70,222.99L67.82,221.49L67.29,218.60L69.15,219.47L68.81,218.19L70.22,217.32L70.12,215.24L74.53,212.84L76.95,212.49L77.22,211.48L73.64,209.88L72.99,208.22L71.98,208.07L70.46,209.13L70.86,210.25L68.20,210.37L66.69,209.38L65.85,210.44L66.82,212.24L64.40,212.17L63.02,210.93L57.34,208.87L56.87,204.02Z" data-region="Pacific" /><path class="region" d="M546.32,23.80L551.29,23.77L551.28,15.11L556.23,15.08L556.19,7.11L561.38,7.11L561.41,-0.03L591.50,0.08L590.79,88.28L560.88,88.12L560.84,80.03L555.94,80.03L556.12,31.80L546.34,31.83L546.32,23.80Z" data-region="Pend Oreille" /><path class="region" d="M167.16,171.15L167.52,169.81L167.88,169.46L167.94,170.77L167.16,171.15Z M164.97,159.40L168.11,160.23L171.08,163.04L170.96,163.91L170.05,164.85L169.16,164.54L164.97,159.40Z M162.08,177.68L163.23,175.60L163.83,176.00L165.85,173.21L168.26,171.85L169.20,169.29L170.93,168.50L171.71,165.51L172.90,163.96L172.97,162.45L173.85,162.01L175.56,158.77L175.62,157.86L174.22,155.59L177.21,156.71L178.81,158.55L182.59,160.75L184.68,158.28L181.99,157.19L182.02,156.66L182.75,156.53L183.10,155.41L184.04,155.34L190.30,161.15L204.74,161.15L206.33,162.85L206.14,163.49L206.87,163.58L206.87,164.97L208.45,166.92L210.84,167.78L212.00,169.12L216.10,169.01L216.28,169.87L219.26,170.68L219.91,172.03L220.66,172.18L221.07,171.34L223.08,170.58L227.78,171.71L231.09,168.95L235.08,169.75L236.89,171.00L239.50,171.12L241.20,170.17L244.33,171.15L246.73,173.85L252.52,173.60L254.18,174.17L257.87,177.17L262.37,176.81L262.99,179.70L261.05,181.88L261.43,182.82L260.57,183.84L260.34,185.42L257.57,186.80L257.79,187.53L256.68,188.28L257.29,191.04L256.73,192.08L253.70,193.45L251.72,196.74L253.67,197.65L254.66,200.30L255.72,201.03L255.41,201.58L257.82,204.12L256.86,204.97L233.90,204.97L231.70,206.26L228.29,209.98L227.36,210.09L220.93,209.03L219.10,207.63L217.21,208.62L215.45,207.79L212.51,208.78L209.41,207.89L202.18,207.61L197.43,205.69L195.24,206.54L192.30,204.47L192.67,200.87L191.09,200.68L190.84,199.37L189.40,200.05L187.55,199.27L187.00,199.83L184.74,199.53L181.46,198.60L180.97,197.59L178.50,197.23L177.97,193.40L173.00,190.93L172.37,188.57L173.03,188.18L171.21,188.04L172.10,187.60L171.75,187.05L169.40,187.13L169.36,188.00L167.41,187.09L167.95,185.12L166.30,184.29L165.71,184.67L165.79,184.09L164.76,183.55L164.16,182.15L164.39,180.97L162.42,178.96L162.08,177.68Z M160.64,165.79L162.33,163.61L163.79,163.48L165.13,164.31L165.04,165.01L166.55,165.03L167.08,166.01L165.91,167.07L164.36,167.30L160.64,165.79Z M159.52,170.63L160.62,170.11L160.87,168.65L162.17,167.64L162.99,167.49L164.65,168.82L164.53,171.84L163.06,171.68L163.07,173.33L161.77,173.16L159.52,170.63Z M152.77,162.25L153.95,159.53L156.09,157.26L155.49,155.45L155.94,153.67L157.45,153.48L155.35,152.76L156.15,151.86L155.03,151.80L155.02,147.65L173.96,147.66L173.92,148.94L174.89,150.20L172.06,154.78L174.21,158.58L171.89,161.30L170.23,160.70L170.81,159.81L169.16,160.04L164.84,158.50L163.71,159.13L162.87,158.71L164.34,154.31L165.81,154.16L164.85,153.18L167.36,151.44L168.13,149.61L163.89,151.20L160.43,153.65L160.55,154.56L158.33,159.63L159.16,159.77L158.92,160.96L160.02,160.38L160.11,161.84L161.28,161.71L160.80,163.16L161.24,164.02L159.57,165.90L159.00,164.65L158.49,165.57L158.91,166.54L159.76,166.55L158.73,169.03L157.25,169.52L156.69,167.83L155.89,167.62L154.55,164.42L153.30,163.60L152.77,162.25Z M151.96,161.11L152.08,160.18L153.19,159.95L152.53,161.22L151.96,161.11Z" data-region="Pierce" /><path class="region" d="M157.64,27.02L158.16,28.15L158.08,28.27L157.80,28.15L157.64,27.02Z M157.01,28.08L156.93,27.50L157.04,27.47L157.01,28.08Z M153.46,37.84L153.98,36.99L154.76,37.20L153.94,37.92L153.46,37.84Z M152.76,39.54L154.28,38.02L157.45,40.76L155.51,43.06L154.53,43.35L153.50,41.94L153.83,41.41L153.04,41.20L152.76,39.54Z M151.46,23.39L152.03,23.17L152.98,23.56L152.51,23.72L151.46,23.39Z M146.15,21.55L147.64,21.28L148.34,21.52L146.61,21.98L148.80,22.93L146.62,23.07L146.06,22.66L146.15,21.55Z M144.08,48.30L145.12,44.63L146.33,44.12L146.01,41.56L148.23,40.86L148.70,39.48L148.83,41.14L150.19,40.57L149.53,42.11L151.95,42.55L150.62,43.22L149.56,45.69L151.27,47.94L150.61,49.93L151.81,49.84L151.38,51.13L153.09,49.87L152.04,45.96L152.31,44.69L155.64,43.90L157.42,45.12L155.87,45.51L155.16,46.77L153.88,47.37L153.70,50.18L155.10,51.13L154.04,52.64L154.98,52.42L154.95,53.06L154.15,53.55L152.15,52.56L151.91,53.20L150.52,52.67L151.41,53.45L151.05,53.66L147.90,53.55L149.28,52.83L148.39,52.07L149.26,51.87L149.69,52.51L150.41,51.83L147.21,51.21L147.21,51.81L145.56,52.07L145.21,51.54L146.06,51.52L146.22,50.31L144.19,50.14L144.08,48.30Z M142.22,19.76L144.16,19.72L144.39,19.96L143.91,20.25L142.22,19.76Z M138.66,37.91L139.72,38.31L142.50,37.49L144.45,38.28L144.68,39.35L145.87,38.18L147.33,38.98L145.67,41.19L145.54,40.35L144.57,40.44L143.89,41.91L140.96,40.96L141.13,40.47L142.06,40.82L140.02,38.82L138.90,38.94L138.66,37.91Z M138.80,36.73L138.67,36.41L138.84,36.36L138.80,36.73Z M137.99,37.03L138.52,37.23L138.58,37.47L138.08,37.54L137.99,37.03Z M137.68,34.23L139.21,31.91L143.85,28.33L144.36,27.25L143.62,26.62L149.24,26.57L159.54,31.41L154.44,35.15L155.11,36.83L154.10,36.36L152.85,36.88L152.76,35.16L151.46,34.96L148.92,32.05L148.67,28.67L146.17,28.71L146.80,32.01L148.95,33.48L150.43,35.86L150.39,36.61L148.74,38.04L143.94,37.25L143.53,34.65L141.19,33.10L140.51,33.79L142.15,36.64L139.68,37.64L139.37,37.09L140.65,36.66L140.49,36.12L139.74,35.06L137.86,35.99L137.68,34.23Z M137.45,37.84L137.54,37.63L137.81,37.65L137.45,37.84Z M137.07,24.83L137.55,24.68L137.57,24.77L137.07,24.83Z M135.88,35.28L136.76,35.27L137.05,36.02L136.16,35.89L135.88,35.28Z M134.83,27.72L136.93,26.15L139.23,25.68L139.62,27.95L138.88,29.13L136.77,30.00L137.22,28.66L134.83,27.72Z M133.40,32.81L134.04,32.41L134.15,32.58L133.40,32.81Z M129.51,32.20L130.29,32.30L130.63,32.58L130.03,32.51L129.51,32.20Z M128.49,33.41L128.63,33.16L128.83,33.44L128.49,33.41Z M127.60,32.44L130.30,32.95L132.02,33.91L129.52,33.43L127.60,32.44Z M124.59,37.41L126.38,34.96L128.13,35.44L128.95,34.68L132.01,34.90L132.64,35.89L132.37,37.09L134.32,37.75L137.27,40.35L139.12,40.73L140.34,42.96L142.26,42.90L142.09,44.36L141.31,44.90L138.74,44.52L138.41,46.15L139.53,48.93L140.96,49.70L142.71,49.28L142.93,50.76L137.18,50.14L134.51,47.87L132.98,47.93L129.91,46.40L127.63,43.46L127.76,41.78L126.63,40.48L127.03,39.24L124.75,38.15L124.59,37.41Z M122.11,29.13L123.64,28.68L126.11,29.20L130.33,31.75L128.02,30.87L126.14,31.68L123.35,30.45L122.11,29.13Z" data-region="San Juan" /><path class="region" d="M174.92,58.92L175.52,58.66L175.96,58.97L175.73,59.22L174.92,58.92Z M173.89,43.73L174.41,43.85L174.37,44.34L173.97,44.26L173.89,43.73Z M173.64,43.03L173.41,42.81L173.69,42.83L173.64,43.03Z M172.50,42.93L172.61,42.73L172.75,42.91L172.50,42.93Z M171.84,55.88L172.11,55.40L173.26,55.24L173.09,55.68L171.84,55.88Z M171.79,54.40L171.91,54.09L171.99,54.12L171.79,54.40Z M169.14,35.78L170.11,35.70L170.35,36.28L169.78,36.45L169.14,35.78Z M169.23,38.92L169.26,38.59L169.53,38.76L169.23,38.92Z M166.18,41.71L166.82,40.61L166.28,38.53L167.02,38.07L168.02,39.57L171.84,41.79L172.28,43.56L170.24,42.83L167.18,43.85L166.30,43.35L166.18,41.71Z M162.73,35.04L164.63,34.22L165.93,36.08L164.43,36.06L162.73,35.04Z M162.50,46.76L163.84,45.40L164.84,45.87L169.71,44.19L170.41,44.90L169.77,45.60L170.20,46.94L171.71,49.60L172.38,49.36L171.83,46.95L173.36,46.26L175.92,50.10L176.69,50.11L176.69,49.42L177.10,50.15L178.59,50.20L178.54,49.68L180.06,49.13L179.05,46.94L178.71,42.90L177.97,42.29L177.47,40.25L173.33,39.36L173.20,38.69L173.68,38.07L174.78,39.18L178.12,39.22L179.73,40.99L181.91,39.79L183.46,37.04L181.69,34.90L178.65,32.79L298.23,33.21L298.23,31.72L310.07,31.72L309.64,32.87L308.57,33.05L307.32,34.67L307.67,36.82L310.66,38.95L312.54,37.32L314.87,39.24L315.05,40.09L313.96,40.78L313.34,42.38L313.73,43.80L309.03,45.42L306.29,45.28L305.16,44.43L305.73,43.60L304.62,42.08L303.05,41.57L301.84,42.15L301.65,43.46L299.97,42.71L298.57,43.15L298.52,44.06L295.04,43.51L294.93,46.32L288.56,46.68L287.54,47.59L286.54,49.92L288.20,51.26L288.49,52.44L287.80,53.74L288.15,54.45L287.10,54.32L286.27,56.09L288.01,58.82L288.22,60.31L286.06,61.13L285.89,63.08L291.17,65.11L187.42,64.96L184.71,62.30L179.87,59.85L178.64,58.55L177.21,59.15L178.47,58.28L178.15,57.88L175.24,57.73L173.61,53.63L172.39,53.76L173.42,53.45L173.99,51.01L172.07,51.32L171.31,53.11L169.82,53.33L169.14,54.22L165.99,54.77L166.37,54.04L165.30,53.97L164.27,51.84L166.09,50.49L165.87,48.75L165.07,47.51L162.50,46.76Z M161.70,49.27L162.70,49.04L163.06,49.72L162.24,50.02L161.70,49.27Z M161.63,48.24L161.98,47.72L163.73,47.45L163.36,48.76L161.63,48.24Z M159.61,38.38L161.84,36.13L165.08,40.10L162.97,41.22L164.03,41.41L163.74,42.26L160.98,42.49L161.24,40.52L159.93,39.86L159.61,38.38Z" data-region="Skagit" /><path class="region" d="M196.80,319.28L197.40,241.77L251.78,241.51L251.78,273.39L244.98,273.38L244.95,286.81L245.20,297.57L252.38,297.61L250.59,298.64L251.83,300.74L251.68,302.90L237.78,305.68L229.91,304.58L225.69,305.82L223.06,307.91L222.58,309.42L218.99,310.42L216.92,312.34L212.28,313.57L207.94,315.98L201.74,316.51L196.80,319.28Z" data-region="Skamania" /><path class="region" d="M190.54,90.58L191.25,90.54L192.68,91.97L190.96,91.53L190.54,90.58Z M184.96,69.18L185.60,69.07L187.82,65.51L187.03,65.42L187.42,64.96L291.17,65.11L290.38,66.60L294.34,71.42L293.96,72.94L297.41,74.88L298.30,77.39L294.66,78.43L293.93,80.10L295.30,82.00L293.38,82.45L292.71,83.76L290.09,85.57L289.02,85.26L285.02,86.79L283.96,86.53L279.71,88.72L282.38,91.90L282.36,92.75L280.17,94.20L280.07,95.20L278.81,96.54L279.03,97.66L277.72,100.00L278.33,100.61L277.62,101.85L278.68,103.62L279.40,103.37L280.16,105.66L279.68,106.79L282.83,108.26L285.94,108.19L284.89,110.27L282.28,112.84L185.73,113.02L185.70,110.35L190.22,106.15L190.78,101.93L192.13,99.41L192.40,97.19L196.80,96.23L198.23,95.18L198.15,91.68L199.07,90.61L198.43,89.63L193.71,87.64L195.05,87.52L191.32,85.00L190.96,83.90L189.67,83.46L188.27,81.37L187.62,77.24L188.59,75.63L187.62,74.83L187.55,72.17L185.77,71.23L184.96,69.18Z" data-region="Snohomish" /><path class="region" d="M531.63,160.90L531.83,108.60L532.96,109.85L534.00,109.96L535.12,108.37L537.76,108.16L541.15,105.78L540.85,104.96L541.41,103.49L542.86,102.74L543.52,103.54L543.73,106.49L544.62,107.72L547.04,108.36L549.57,111.46L551.92,110.83L553.56,111.43L553.31,88.06L590.79,88.28L590.92,160.99L531.63,160.90Z" data-region="Spokane" /><path class="region" d="M487.84,90.05L491.13,87.91L497.44,88.73L498.27,87.10L500.26,87.10L500.80,84.32L500.32,82.79L499.10,82.04L499.04,80.60L503.42,79.05L503.81,77.82L503.41,74.86L504.09,74.07L503.54,72.83L506.60,70.48L507.58,68.42L506.60,65.12L505.00,62.94L504.52,58.00L502.96,54.86L502.93,51.59L502.23,50.16L503.97,47.94L505.05,44.27L507.55,43.77L507.46,41.78L508.79,38.43L508.68,35.79L510.34,32.05L509.41,30.08L509.26,26.00L508.76,25.46L509.36,24.30L508.54,24.05L509.03,23.13L508.17,22.44L508.80,22.05L508.10,20.89L509.05,20.42L508.69,19.77L507.45,20.41L506.16,19.12L505.34,15.90L503.49,14.73L503.27,12.28L502.12,11.29L502.38,9.39L503.46,8.02L501.51,5.82L502.60,3.41L501.51,2.73L502.05,1.29L502.71,1.16L501.64,0.24L561.41,-0.03L561.38,7.11L556.19,7.11L556.23,15.08L551.28,15.11L551.29,23.77L546.32,23.80L546.34,31.83L556.12,31.80L555.94,80.03L560.84,80.03L560.88,88.12L553.31,88.06L553.56,111.43L551.92,110.83L549.57,111.46L547.04,108.36L544.62,107.72L543.73,106.49L543.52,103.54L542.86,102.74L541.41,103.49L540.85,104.96L541.15,105.78L536.97,108.50L535.12,108.37L534.14,109.93L532.96,109.85L530.39,107.46L527.33,106.57L526.89,107.44L524.87,107.73L523.41,108.80L519.11,107.78L517.27,110.47L515.56,110.73L514.64,111.70L512.37,110.98L510.94,108.35L509.26,107.88L508.99,105.69L507.41,103.15L506.13,103.11L506.16,101.99L504.78,101.55L504.87,100.65L502.35,97.55L499.29,97.77L494.40,100.81L493.94,102.08L492.49,102.26L491.34,99.02L491.90,95.10L490.24,93.82L489.88,92.50L487.84,90.05Z" data-region="Stevens" /><path class="region" d="M124.61,185.25L124.70,177.10L134.29,177.13L134.40,175.15L138.36,174.05L139.55,171.20L142.91,169.76L144.73,167.37L144.91,168.14L146.68,168.70L147.27,170.40L150.69,169.45L151.95,169.88L152.20,170.98L151.49,172.89L152.67,174.33L153.01,170.09L153.96,168.41L156.83,173.75L157.88,173.88L160.73,176.29L163.23,175.60L162.06,177.79L163.19,180.04L164.39,180.97L164.16,182.15L164.76,183.55L165.79,184.09L165.71,184.67L166.30,184.29L167.95,185.12L167.32,186.91L168.04,187.61L169.36,188.00L169.40,187.13L171.75,187.05L172.10,187.60L171.21,188.04L173.03,188.18L172.37,188.57L173.00,190.93L178.25,193.77L178.50,197.23L180.97,197.59L181.46,198.60L184.74,199.53L187.00,199.83L187.55,199.27L189.40,200.05L190.84,199.37L191.09,200.68L192.67,200.87L192.75,202.63L191.99,203.84L194.02,205.86L195.78,206.69L197.43,205.69L200.27,206.88L127.80,206.77L127.99,185.35L124.61,185.25Z" data-region="Thurston" /><path class="region" d="M84.90,250.66L85.00,241.86L123.48,241.79L123.85,261.50L118.78,264.06L111.87,263.92L107.37,260.66L107.62,256.25L104.05,252.69L102.05,252.39L98.54,253.49L98.54,252.89L93.55,253.41L89.32,252.78L88.59,252.25L88.48,250.08L86.96,249.29L85.17,249.60L84.90,250.66Z" data-region="Wahkiakum" /><path class="region" d="M439.60,259.31L440.85,257.42L444.40,255.49L452.95,254.21L455.71,251.25L460.06,250.27L459.74,248.04L460.64,247.35L461.83,244.21L465.25,244.16L465.99,242.21L470.28,239.30L470.01,237.37L471.45,233.59L471.71,230.79L473.78,228.56L475.51,227.98L476.82,226.04L480.72,224.23L482.28,222.41L483.30,222.09L486.27,223.47L488.80,223.76L490.92,222.15L493.59,221.38L497.20,222.59L499.80,221.90L500.99,222.58L501.03,225.63L499.93,225.69L499.99,250.17L509.50,250.13L509.46,258.22L518.93,258.25L518.81,275.63L518.52,277.38L443.59,277.48L447.04,274.96L446.58,273.06L446.99,270.57L444.58,264.62L439.60,259.31Z" data-region="Walla Walla" /><path class="region" d="M170.74,32.24L171.46,31.45L171.93,32.59L171.46,32.81L170.74,32.24Z M166.42,26.61L168.72,27.12L169.17,26.35L169.79,27.77L168.54,28.31L166.42,26.61Z M161.25,26.19L161.48,23.24L163.62,24.53L165.31,27.99L168.86,30.45L169.59,33.25L164.68,29.52L163.29,26.68L161.25,26.19Z M153.41,5.09L155.34,2.31L158.55,0.25L158.28,-0.22L302.53,-0.03L301.59,1.80L299.95,2.29L300.32,3.08L302.73,4.08L304.03,5.71L306.49,3.76L308.71,4.13L309.79,5.38L309.82,6.27L308.55,6.80L308.54,8.63L309.25,9.29L308.68,10.93L311.33,12.54L311.63,13.41L310.79,16.46L311.32,19.75L312.07,20.96L313.25,21.10L315.65,24.50L317.34,25.49L315.65,26.10L315.51,28.27L313.74,28.03L312.59,30.10L312.69,31.03L310.07,31.72L298.23,31.72L298.23,33.21L178.65,32.79L176.94,30.72L178.54,30.41L178.00,27.68L177.19,27.86L177.26,28.68L176.35,26.16L177.23,25.74L178.53,23.02L176.87,22.46L175.10,20.70L173.00,20.48L169.62,21.94L166.31,26.27L164.58,24.29L166.65,20.90L166.70,19.88L165.30,19.55L164.17,18.24L162.65,18.06L162.16,18.28L162.70,19.45L161.90,19.70L161.38,14.13L155.62,9.90L158.79,8.21L159.24,7.29L158.95,6.03L157.34,5.32L155.63,6.26L153.41,5.09Z M133.12,-0.18L137.30,-0.20L138.35,2.10L133.62,2.64L133.12,-0.18Z" data-region="Whatcom" /><path class="region" d="M499.44,209.56L502.74,209.04L503.92,207.96L505.95,208.41L506.48,207.23L508.74,207.04L511.07,205.41L514.65,206.41L515.57,204.85L517.18,204.71L516.82,202.10L518.47,201.38L518.91,199.99L518.03,199.88L517.93,199.08L520.49,197.25L520.77,192.85L521.36,192.85L521.24,160.87L590.92,160.99L590.93,238.07L589.57,237.71L587.18,238.91L583.02,237.67L579.59,238.57L578.00,238.17L577.72,237.48L578.38,236.07L575.95,233.98L576.44,231.16L574.76,227.12L571.14,224.05L567.77,223.30L564.73,220.22L564.73,217.37L561.21,216.47L558.78,212.75L556.87,213.14L555.03,214.82L552.36,214.54L548.72,215.26L546.99,214.93L544.17,212.53L537.89,213.22L536.73,214.16L535.92,217.10L534.18,219.10L528.39,220.01L526.79,223.23L517.37,223.08L511.26,224.32L509.67,225.91L506.04,226.15L501.97,222.99L502.53,221.07L503.27,220.99L503.28,219.93L501.99,219.00L500.83,216.75L501.83,214.65L499.44,209.56Z" data-region="Whitman" /><path class="region" d="M251.72,196.74L253.70,193.45L256.73,192.08L257.29,191.04L256.62,188.62L257.86,187.40L257.57,186.80L260.55,185.09L260.57,183.84L261.43,182.82L261.05,181.88L262.99,179.70L262.30,177.13L264.12,178.43L265.03,177.69L267.20,177.98L270.06,176.76L278.77,181.69L281.03,183.38L281.96,185.07L284.49,185.80L284.49,187.81L286.09,188.81L286.09,189.82L287.29,191.17L288.09,191.17L288.09,192.17L289.28,193.17L318.95,193.10L318.99,201.08L328.48,201.17L328.37,209.21L369.00,209.28L369.03,210.57L371.18,215.19L374.41,218.67L374.92,218.98L375.92,219.13L376.49,219.35L376.53,257.61L377.06,257.61L377.11,273.68L251.78,273.39L251.78,241.55L261.51,241.38L262.05,239.48L260.48,237.70L260.10,234.93L258.27,233.23L259.28,231.89L257.24,230.89L256.80,229.67L257.18,228.08L259.77,226.75L260.07,225.79L259.17,224.74L260.60,223.60L260.49,221.70L262.03,220.04L262.06,218.63L261.40,217.73L259.78,217.16L260.03,214.95L261.11,213.82L262.80,213.97L262.56,212.55L264.58,211.61L263.39,210.30L260.58,210.18L258.71,208.96L259.20,207.48L257.89,207.33L256.87,205.26L257.82,204.12L255.41,201.58L255.72,201.03L254.66,200.30L253.67,197.65L251.72,196.74Z" data-region="Yakima" /></svg>