<svg xmlns="http://www.w3.org/2000/svg" aria-hidden="true" viewBox="0 0 600 320"><style>.region { fill:#f4f4f0; stroke:#888; stroke-width:0.5 }</style><path class="region" d="M445.30,94.64L446.09,91.14L437.48,79.92L418.27,83.77L416.52,91.38L411.72,96.99L418.15,103.76L417.65,107.89L424.43,108.79L425.72,111.73L419.10,123.12L404.47,134.05L397.64,151.70L393.09,151.86L391.97,156.40L382.33,150.97L386.39,143.44L395.00,143.31L394.62,139.77L390.44,138.69L391.43,133.46L404.46,124.34L402.56,115.13L397.26,109.78L398.06,116.16L390.95,121.65L389.96,128.33L384.04,137.63L376.57,140.19L366.30,135.13L354.00,123.75L355.77,119.62L367.66,115.64L376.16,107.30L367.59,106.27L363.41,100.76L353.05,97.15L353.62,102.87L362.50,105.75L357.69,106.07L356.31,110.61L349.21,114.75L348.53,120.31L340.75,121.12L346.47,124.54L346.31,129.56L339.67,135.07L335.76,133.76L328.88,137.06L340.83,154.35L347.47,155.91L357.64,153.08L360.80,164.39L365.33,169.31L366.97,162.75L374.76,158.79L396.75,158.14L402.09,150.67L401.64,147.26L418.56,148.44L422.28,151.27L422.53,155.16L427.46,155.79L426.81,161.33L431.20,165.84L441.03,157.18L448.12,154.88L489.38,159.21L483.44,164.56L475.65,162.07L447.80,163.65L440.65,170.17L432.10,169.40L441.91,171.25L445.96,165.41L450.86,164.47L485.48,166.00L490.42,162.71L494.56,165.49L486.89,173.52L485.21,179.70L473.81,186.73L466.14,187.95L460.98,191.79L469.63,188.01L482.34,190.76L495.02,186.95L491.42,193.55L495.08,204.47L493.07,207.81L476.31,216.72L472.62,214.73L468.24,218.05L456.79,218.83L475.58,218.86L475.27,226.24L471.15,228.79L470.38,233.30L472.49,235.33L473.99,229.63L483.51,224.49L497.50,228.83L503.39,225.21L504.12,217.53L513.09,209.59L526.40,204.21L533.35,190.75L535.06,179.51L539.65,177.29L542.85,168.70L551.09,163.22L556.28,150.40L567.45,139.38L569.60,140.96L573.21,138.04L569.83,134.42L567.10,135.43L542.41,104.87L536.07,106.39L532.29,103.21L514.16,109.37L501.56,96.95L491.58,101.02L486.42,106.93L477.56,98.69L466.89,94.99L462.28,99.83L455.78,95.62L447.69,96.77L445.30,94.64Z M428.58,84.93L437.15,84.61L431.37,93.43L428.93,93.33L431.33,87.83L428.58,84.93Z M428.02,94.99L425.43,97.34L423.73,92.23L427.29,92.50L428.02,94.99Z M427.00,88.81L420.89,89.34L420.51,85.00L421.59,84.10L427.00,88.81Z M458.16,104.28L473.51,103.03L482.35,109.18L481.12,111.68L463.72,113.90L464.07,115.97L475.83,114.21L479.59,116.25L477.57,120.93L471.91,123.41L452.92,114.62L442.11,126.56L443.33,128.73L436.14,140.18L431.81,143.85L428.40,140.30L427.71,134.53L431.20,127.38L428.70,123.13L424.78,122.54L423.98,119.01L448.29,101.33L458.16,104.28Z M495.71,104.95L502.25,103.50L504.10,107.17L500.93,109.75L499.62,106.15L495.84,107.99L495.71,104.95Z M503.64,109.63L509.11,116.55L512.49,114.14L517.65,118.49L517.00,114.88L523.14,112.91L535.62,115.08L538.03,122.32L530.36,130.14L526.80,143.64L513.86,143.26L515.19,137.95L501.05,124.45L497.11,112.62L503.64,109.63Z M538.71,136.27L537.00,132.12L539.73,130.61L540.41,134.87L538.71,136.27Z M516.89,144.85L522.80,144.19L524.80,146.97L512.43,160.68L504.19,160.93L516.89,144.85Z M550.93,138.33L543.61,141.45L548.37,134.12L550.93,138.33Z M511.50,146.49L503.75,156.97L481.75,155.40L478.55,152.75L486.59,152.02L494.85,147.55L499.82,129.94L512.69,138.38L510.28,141.58L511.50,146.49Z M494.72,144.98L486.81,150.30L469.46,152.89L481.72,146.52L496.75,126.51L498.11,128.90L494.72,144.98Z M462.11,148.18L473.08,147.41L462.42,153.12L462.11,148.18Z M440.87,150.41L445.86,154.22L435.23,153.61L435.42,151.45L440.87,150.41Z M461.14,139.17L453.97,144.81L438.46,146.62L442.99,142.35L452.54,140.89L462.27,135.06L461.14,139.17Z M465.74,137.47L471.90,136.32L470.56,140.32L463.17,141.66L465.74,137.47Z M478.46,138.41L484.37,136.98L484.37,139.26L475.95,145.98L478.46,138.41Z M474.84,132.36L469.87,135.14L469.21,133.62L474.84,132.36Z M455.85,120.07L471.96,125.83L462.85,129.30L452.28,139.09L446.52,139.79L445.10,137.46L445.70,133.31L452.89,127.78L455.85,120.07Z M412.12,142.58L420.00,139.66L423.06,143.51L412.12,142.58Z M405.20,140.51L413.04,136.97L414.35,138.81L406.44,142.89L405.20,140.51Z M367.49,155.86L369.36,158.13L362.73,162.61L362.02,160.41L367.49,155.86Z M368.62,146.92L364.77,149.16L362.68,156.47L362.69,143.13L365.56,141.46L368.62,146.92Z M358.00,146.35L352.07,143.19L350.17,139.64L352.50,136.85L358.00,146.35Z M360.33,144.71L355.15,139.94L356.60,137.76L360.26,142.46L360.33,144.71Z M538.66,160.15L543.84,164.59L532.61,175.09L520.01,175.64L519.81,171.78L528.05,163.72L538.66,160.15Z M547.06,162.96L545.57,159.27L547.29,156.09L549.24,160.26L547.06,162.96Z M495.91,180.17L493.07,185.88L482.10,189.44L481.24,187.22L495.91,180.17Z M483.06,183.59L489.14,174.77L492.80,173.28L490.36,179.79L483.06,183.59Z M499.00,172.24L496.27,168.65L498.24,166.58L499.00,172.24Z M502.28,172.83L503.40,165.06L507.40,165.53L505.35,171.31L502.28,172.83Z M512.18,191.43L511.45,189.69L512.11,184.97L514.18,187.43L512.18,191.43Z M509.52,192.53L506.58,192.19L509.32,188.40L509.52,192.53Z M519.27,191.08L514.58,202.71L512.39,202.26L517.04,188.04L519.27,191.08Z M501.22,197.03L505.86,202.00L505.48,204.96L496.86,206.66L496.37,203.06L501.22,197.03Z M495.54,211.03L490.00,219.97L478.10,223.42L477.09,219.19L495.54,211.03Z M500.76,220.96L496.32,220.47L498.70,217.34L500.76,220.96Z" data-region="10a. Channeled Scablands" /><path class="region" d="M503.44,223.19L510.94,223.30L509.85,220.35L514.33,215.00L517.50,217.45L513.82,222.42L526.61,220.35L542.66,209.27L539.71,194.62L541.92,189.41L534.92,185.31L529.49,200.74L513.09,209.59L504.12,217.53L503.44,223.19Z M473.99,229.63L471.89,241.88L466.25,244.51L466.25,246.76L469.12,246.61L465.57,252.07L466.35,255.21L469.26,255.70L476.04,266.98L487.37,264.69L489.85,261.22L493.08,264.04L491.13,267.09L495.48,274.19L499.67,272.89L502.12,260.70L504.81,261.67L503.65,253.98L511.83,249.31L509.31,243.13L506.06,243.34L506.35,238.93L510.90,240.42L512.84,237.55L507.74,230.63L500.24,226.70L497.50,228.83L483.51,224.49L473.99,229.63Z M475.58,218.86L450.93,219.68L444.48,228.28L449.24,229.39L451.49,233.44L459.83,235.16L461.90,237.15L460.83,240.63L463.95,242.36L467.61,240.11L471.15,228.79L475.27,226.24L475.58,218.86Z M461.09,192.68L440.38,187.63L433.36,193.92L436.97,201.57L436.44,205.74L445.73,217.65L455.52,215.56L468.24,218.05L472.62,214.73L476.31,216.72L495.08,204.47L491.42,193.55L495.02,186.95L482.34,190.76L469.63,188.01L461.09,192.68Z M432.10,169.40L432.69,175.46L435.69,176.48L441.84,173.28L446.38,173.16L445.85,176.88L453.09,174.60L451.88,178.19L448.42,177.88L445.45,184.99L460.98,191.79L485.21,179.70L486.89,173.52L494.56,165.49L490.42,162.71L485.48,166.00L450.86,164.47L445.96,165.41L441.91,171.25L432.10,169.40Z M431.20,165.84L433.20,168.78L440.65,170.17L447.80,163.65L475.65,162.07L483.44,164.56L489.38,159.21L448.12,154.88L441.03,157.18L431.20,165.84Z M389.92,124.40L378.66,116.33L376.16,107.30L367.66,115.64L355.77,119.62L354.00,123.75L366.30,135.13L376.57,140.19L384.04,137.63L389.96,128.33L389.92,124.40Z M410.69,128.84L403.97,130.34L399.73,127.43L394.30,129.58L390.44,138.69L394.62,139.77L395.00,143.31L386.39,143.44L382.33,150.97L391.97,156.40L393.09,151.86L397.64,151.70L404.47,134.05L410.69,128.84Z M458.16,104.28L448.29,101.33L423.98,119.01L424.78,122.54L428.70,123.13L431.20,127.38L427.71,134.53L428.40,140.30L431.81,143.85L436.14,140.18L443.33,128.73L442.11,126.56L452.92,114.62L471.91,123.41L477.57,120.93L479.59,116.25L475.83,114.21L464.07,115.97L463.72,113.90L481.12,111.68L482.35,109.18L473.51,103.03L458.16,104.28Z M502.25,103.50L495.71,104.95L495.84,107.99L499.62,106.15L500.93,109.75L504.10,107.17L502.25,103.50Z M509.11,116.55L503.64,109.63L497.11,112.62L501.05,124.45L515.19,137.95L513.86,143.26L526.80,143.64L530.36,130.14L538.03,122.32L535.62,115.08L523.14,112.91L517.00,114.88L517.65,118.49L512.49,114.14L509.11,116.55Z M538.71,136.27L540.41,134.87L539.73,130.61L537.00,132.12L538.71,136.27Z M522.80,144.19L514.93,144.89L504.19,160.93L512.43,160.68L524.80,146.97L522.80,144.19Z M543.61,141.45L550.93,138.33L548.37,134.12L543.61,141.45Z M511.50,146.49L510.28,141.58L512.69,138.38L499.82,129.94L494.85,147.55L486.59,152.02L478.55,152.75L481.75,155.40L503.75,156.97L511.50,146.49Z M494.72,144.98L498.11,128.90L496.75,126.51L481.72,146.52L469.46,152.89L486.81,150.30L494.72,144.98Z M473.08,147.41L462.11,148.18L462.42,153.12L473.08,147.41Z M440.87,150.41L435.42,151.45L435.23,153.61L445.86,154.22L440.87,150.41Z M461.14,139.17L462.27,135.06L452.54,140.89L442.99,142.35L438.46,146.62L453.97,144.81L461.14,139.17Z M465.74,137.47L463.17,141.66L470.56,140.32L471.90,136.32L465.74,137.47Z M484.37,136.98L478.46,138.41L475.95,145.98L484.37,139.26L484.37,136.98Z M474.84,132.36L469.21,133.62L469.87,135.14L474.84,132.36Z M471.96,125.83L455.85,120.07L452.89,127.78L445.70,133.31L445.10,137.46L446.52,139.79L452.28,139.09L462.85,129.30L471.96,125.83Z M420.00,139.66L412.12,142.58L423.06,143.51L420.00,139.66Z M409.01,137.44L405.20,140.51L406.44,142.89L414.35,138.81L409.01,137.44Z M367.49,155.86L362.02,160.41L362.73,162.61L369.36,158.13L367.49,155.86Z M368.62,146.92L365.56,141.46L362.69,143.13L362.68,156.47L364.77,149.16L368.62,146.92Z M358.00,146.35L352.50,136.85L350.17,139.64L352.07,143.19L358.00,146.35Z M360.33,144.71L360.26,142.46L356.60,137.76L355.15,139.94L360.33,144.71Z M538.66,160.15L528.05,163.72L519.81,171.78L520.01,175.64L532.61,175.09L543.84,164.59L538.66,160.15Z M547.06,162.96L549.24,160.26L547.29,156.09L545.57,159.27L547.06,162.96Z M495.91,180.17L487.18,182.63L481.24,187.22L482.10,189.44L493.07,185.88L495.91,180.17Z M483.06,183.59L490.36,179.79L492.80,173.28L489.14,174.77L483.06,183.59Z M499.00,172.24L498.24,166.58L496.27,168.65L499.00,172.24Z M502.28,172.83L505.35,171.31L507.40,165.53L503.40,165.06L502.28,172.83Z M512.18,191.43L514.18,187.43L512.11,184.97L511.45,189.69L512.18,191.43Z M506.58,192.19L509.52,192.53L509.32,188.40L506.58,192.19Z M514.58,202.71L519.27,191.08L517.04,188.04L512.39,202.26L514.58,202.71Z M501.22,197.03L496.37,203.06L496.86,206.66L505.48,204.96L505.86,202.00L501.22,197.03Z M495.54,211.03L477.09,219.19L478.10,223.42L490.00,219.97L495.54,211.03Z M500.76,220.96L498.70,217.34L496.32,220.47L500.76,220.96Z M467.89,260.70L460.78,263.55L462.59,268.27L464.92,266.32L467.89,260.70Z" data-region="10b. Loess Islands" /><path class="region" d="M376.45,103.75L378.66,116.33L389.92,124.40L398.06,116.16L397.26,109.78L400.69,112.14L404.46,124.34L399.73,127.43L403.97,130.34L419.10,123.12L425.72,111.73L424.43,108.79L417.65,107.89L418.15,103.76L411.72,96.99L416.52,91.38L418.27,83.77L406.16,63.58L401.40,68.74L398.14,68.28L397.27,80.29L393.12,88.09L389.67,91.30L388.99,87.69L384.54,87.22L380.50,93.47L382.91,96.21L381.81,99.40L376.45,103.75Z M437.15,84.61L428.58,84.93L431.33,87.83L428.93,93.33L431.37,93.43L437.15,84.61Z M428.02,94.99L427.29,92.50L423.73,92.23L425.43,97.34L428.02,94.99Z M427.00,88.81L421.59,84.10L420.51,85.00L420.89,89.34L427.00,88.81Z" data-region="10d. Okanogan Drift Hills" /><path class="region" d="M470.38,233.30L467.61,240.11L463.95,242.36L460.83,240.63L461.90,237.15L459.83,235.16L451.49,233.44L449.24,229.39L444.48,228.28L450.93,219.68L458.34,216.97L443.07,215.81L434.39,199.77L433.36,193.92L440.38,187.63L461.09,192.68L452.88,186.47L445.45,184.99L448.42,177.88L451.88,178.19L453.09,174.60L445.85,176.88L446.38,173.16L432.69,175.46L433.20,168.78L426.81,161.33L427.46,155.79L422.53,155.16L422.28,151.27L418.56,148.44L401.64,147.26L402.09,150.67L396.75,158.14L374.76,158.79L366.97,162.75L363.46,178.63L371.34,203.02L368.77,207.81L370.98,216.29L385.15,220.71L382.50,224.60L386.53,227.39L383.50,232.41L401.08,238.20L404.99,243.86L404.21,247.09L394.72,251.75L381.01,253.26L372.74,244.82L354.15,240.80L334.10,231.20L332.75,227.41L344.50,228.36L329.09,219.34L333.16,214.90L331.70,212.23L324.22,219.08L313.38,208.97L324.00,221.10L324.04,224.01L307.27,229.52L325.26,227.39L329.91,229.55L309.15,235.67L304.90,241.78L307.05,246.67L318.08,249.33L348.80,248.82L344.45,253.43L359.92,263.27L380.49,261.13L402.26,253.43L416.95,262.32L428.33,262.66L440.32,267.89L445.40,274.76L437.31,279.96L423.62,277.80L425.33,274.89L410.47,275.23L393.07,266.39L380.32,270.93L363.13,290.20L362.02,294.92L359.51,293.86L352.51,298.69L351.01,296.93L349.08,300.50L341.06,298.74L340.21,301.78L335.19,303.84L335.58,300.27L330.32,304.05L320.63,299.47L298.78,308.23L275.30,308.43L277.39,313.85L284.87,310.02L299.20,310.48L318.92,300.96L330.46,305.72L351.01,302.80L369.55,293.70L391.94,290.69L399.38,284.35L405.71,286.12L433.08,283.67L447.53,277.00L448.90,272.70L457.80,277.38L494.56,277.40L495.48,274.19L491.13,267.09L493.08,264.04L489.85,261.22L487.37,264.69L476.04,266.98L469.26,255.70L466.35,255.21L465.57,252.07L469.12,246.61L466.25,246.76L466.25,244.51L471.89,241.88L472.49,235.33L470.38,233.30Z M467.89,260.70L464.92,266.32L462.59,268.27L460.78,263.55L467.89,260.70Z M368.36,184.88L418.21,188.40L419.37,190.99L410.95,192.86L393.28,189.88L370.83,196.54L368.36,184.88Z M374.91,201.13L420.79,202.99L431.48,211.78L425.69,213.15L414.13,206.40L383.70,207.78L373.02,205.55L374.91,201.13Z M339.39,180.95L325.48,175.93L311.66,175.23L311.19,177.64L316.72,187.85L345.20,198.79L340.60,190.22L343.42,187.07L339.39,180.95Z" data-region="10e. Pleistocene Lake Basins" /><path class="region" d="M500.24,226.70L507.74,230.63L512.84,237.55L510.90,240.42L534.12,236.74L535.16,241.07L540.88,243.81L541.30,247.72L547.57,250.84L547.68,245.74L550.58,248.34L552.49,244.07L556.79,252.00L587.83,246.15L591.10,239.41L580.68,240.53L568.01,247.45L558.18,244.65L557.27,242.54L565.39,238.73L566.31,234.36L574.02,234.63L573.35,228.47L567.78,227.13L559.61,216.88L546.68,216.11L550.82,206.50L537.24,211.45L526.61,220.35L513.82,222.42L517.50,217.45L512.88,215.45L509.85,220.35L510.94,223.30L503.44,223.19L500.24,226.70Z M574.76,261.46L588.82,270.50L594.91,266.26L597.36,261.38L595.32,260.93L593.98,265.47L592.09,264.21L591.21,249.22L587.11,249.43L587.12,252.40L578.26,258.24L582.48,250.98L577.74,248.26L573.63,251.71L573.97,259.07L569.59,261.95L574.76,261.46Z" data-region="10f. Dissected Loess Uplands" /><path class="region" d="M347.47,155.91L349.54,173.54L318.22,168.14L308.44,170.08L307.09,174.88L310.44,191.56L306.44,196.04L310.28,204.74L298.31,206.86L294.56,217.19L300.62,221.53L296.24,226.25L297.79,234.99L292.79,238.87L301.56,247.69L299.89,250.01L303.70,254.16L308.29,254.87L307.07,259.01L310.47,264.15L320.01,273.80L340.38,275.55L339.31,280.10L336.85,280.56L335.61,292.34L328.78,291.15L321.43,296.35L316.14,292.05L304.40,292.07L298.87,287.69L292.39,295.43L288.11,293.11L284.34,303.48L276.04,305.45L276.14,307.86L298.78,308.23L320.63,299.47L330.32,304.05L335.58,300.27L335.19,303.84L340.21,301.78L341.06,298.74L349.08,300.50L351.01,296.93L352.51,298.69L359.51,293.86L362.02,294.92L363.13,290.20L380.32,270.93L393.07,266.39L410.47,275.23L425.33,274.89L423.62,277.80L437.31,279.96L445.40,274.76L440.32,267.89L428.33,262.66L416.95,262.32L402.26,253.43L380.49,261.13L359.92,263.27L344.45,253.43L348.80,248.82L321.54,249.74L307.05,246.67L304.90,241.78L309.15,235.67L329.91,229.55L325.26,227.39L307.27,229.52L324.04,224.01L324.00,221.10L313.38,208.97L324.22,219.08L331.70,212.23L333.16,214.90L329.09,219.34L344.50,228.36L332.75,227.41L334.10,231.20L354.15,240.80L372.74,244.82L381.01,253.26L394.72,251.75L404.21,247.09L404.99,243.86L401.08,238.20L383.50,232.41L386.53,227.39L382.50,224.60L385.15,220.71L370.98,216.29L368.77,207.81L371.34,203.02L363.46,178.63L366.10,172.52L364.81,167.02L360.80,164.39L357.64,153.08L347.47,155.91Z M325.48,175.93L339.39,180.95L343.42,187.07L340.60,190.22L345.20,198.79L316.72,187.85L311.19,177.64L311.66,175.23L325.48,175.93Z M445.18,277.42L457.80,277.38L448.90,272.70L445.18,277.42Z M418.21,188.40L374.78,184.08L368.36,184.88L370.83,196.54L393.28,189.88L410.95,192.86L419.37,190.99L418.21,188.40Z M420.79,202.99L374.91,201.13L373.02,205.55L383.70,207.78L414.13,206.40L425.69,213.15L431.48,211.78L420.79,202.99Z" data-region="10g. Yakima Folds" /><path class="region" d="M534.92,185.31L541.92,189.41L539.71,194.62L542.66,209.27L550.82,206.50L547.91,210.61L549.03,213.31L560.07,208.64L570.49,221.97L578.22,226.54L579.07,230.03L584.01,230.93L583.54,234.61L590.93,235.11L590.93,139.38L585.87,135.05L569.60,140.96L567.45,139.38L556.28,150.40L551.09,163.22L542.85,168.70L539.65,177.29L535.06,179.51L534.92,185.31Z" data-region="10h. Palouse Hills" /><path class="region" d="M495.48,274.19L494.56,277.40L506.89,277.39L507.14,271.20L516.20,267.54L521.25,258.02L531.77,256.03L533.90,248.79L541.30,247.72L540.88,243.81L531.02,236.21L526.02,239.26L506.35,238.93L506.06,243.34L509.31,243.13L511.83,249.31L503.65,253.98L504.81,261.67L502.12,260.70L499.67,272.89L495.48,274.19Z" data-region="10i. Deep Loess Foothills" /><path class="region" d="M597.36,261.38L594.86,249.89L589.86,245.59L591.32,238.77L590.93,235.11L583.54,234.61L584.01,230.93L579.07,230.03L578.22,226.54L570.49,221.97L560.07,208.64L546.68,216.11L559.61,216.88L567.78,227.13L573.35,228.47L574.02,234.63L566.31,234.36L565.39,238.73L557.27,242.54L558.18,244.65L568.01,247.45L580.68,240.53L591.10,239.41L587.83,246.15L563.02,249.92L561.01,251.43L564.10,257.22L569.59,261.95L573.97,259.07L573.63,251.71L577.74,248.26L582.48,250.98L578.26,258.24L587.12,252.40L587.11,249.43L591.21,249.22L592.09,264.21L593.98,265.47L595.32,260.93L597.36,261.38Z" data-region="10l. Lower Snake and Clearwater Canyons" /><path class="region" d="M375.23,107.37L381.81,99.40L382.91,96.21L380.50,93.47L384.54,87.22L388.99,87.69L389.67,91.30L393.12,88.09L397.27,80.29L398.14,68.28L401.40,68.74L406.16,63.58L418.27,83.77L437.48,79.92L446.09,91.14L445.30,94.64L452.47,90.85L454.56,71.78L443.75,73.71L443.08,76.25L428.57,76.19L421.35,80.70L418.23,77.38L424.40,74.54L423.61,72.89L410.41,60.55L415.60,59.18L420.66,61.89L426.40,58.95L414.76,56.07L405.42,45.62L407.08,41.32L417.11,46.67L423.80,46.15L419.59,40.63L408.08,38.25L410.63,35.07L416.73,35.54L415.94,32.46L421.23,33.83L426.13,30.54L416.30,19.75L411.84,10.77L411.74,7.99L417.81,5.06L419.72,-0.03L388.76,-0.02L388.88,3.85L392.03,6.12L398.46,1.91L403.88,2.48L408.75,14.70L401.55,12.50L396.54,15.06L403.25,32.29L397.87,37.49L401.48,39.10L401.75,43.08L394.97,43.24L387.08,38.94L384.43,42.46L390.81,45.10L392.65,49.17L398.02,50.11L394.44,52.33L393.29,58.97L381.00,66.65L384.29,71.70L381.44,77.37L374.69,77.84L362.62,72.57L362.98,67.80L368.38,62.27L368.39,57.66L354.39,40.16L343.79,43.43L347.32,49.71L346.68,54.74L348.94,58.28L347.37,60.40L355.73,59.84L359.24,65.29L350.03,63.70L348.06,66.54L354.83,68.74L363.10,82.89L371.73,89.12L375.73,96.47L371.22,103.17L368.63,102.71L369.51,106.28L375.23,107.37Z" data-region="10m. Okanogan Valley" /><path class="region" d="M525.11,258.90L523.19,263.95L525.14,267.03L525.08,262.81L530.01,260.94L532.50,262.77L532.25,266.46L535.58,265.07L535.94,256.97L532.81,252.74L531.77,256.03L525.11,258.90Z M516.46,266.85L520.83,266.16L523.23,258.52L521.25,258.02L516.46,266.85Z M506.89,277.39L516.39,277.40L514.35,275.65L516.20,267.54L507.14,271.20L506.89,277.39Z" data-region="11c. Maritime-Influenced Zone" /><path class="region" d="M569.59,261.95L564.10,257.22L562.30,251.03L556.79,252.00L551.32,244.44L550.58,248.34L547.68,245.74L547.57,250.84L541.30,247.72L542.34,251.49L536.57,254.60L536.10,259.67L538.73,255.79L549.62,260.75L547.91,256.68L550.89,255.02L570.96,266.81L562.46,266.31L558.41,269.56L545.80,266.39L543.10,270.59L542.32,267.10L532.01,269.24L532.75,274.32L530.85,274.99L527.40,269.75L525.27,275.94L552.83,277.61L553.00,275.26L562.17,272.92L569.05,274.21L575.41,269.13L580.84,272.00L585.09,269.45L574.76,261.46L569.59,261.95Z" data-region="11f. Canyons and Dissected Highlands" /><path class="region" d="M588.82,270.50L580.84,272.00L575.41,269.13L569.05,274.21L562.17,272.92L553.00,275.26L552.83,277.61L600.21,277.88L597.17,270.48L599.80,262.59L598.14,260.21L594.91,266.26L588.82,270.50Z" data-region="11g. Canyons and Dissected Uplands" /><path class="region" d="M532.81,252.74L535.94,256.97L542.34,251.49L541.26,247.77L538.11,247.22L533.90,248.79L532.81,252.74Z M523.23,258.52L520.83,266.16L516.20,267.54L514.35,275.65L516.39,277.40L524.89,275.63L523.19,263.95L525.11,258.90L523.23,258.52Z M525.08,262.81L530.85,274.99L532.75,274.32L532.01,269.24L542.32,267.10L543.10,270.59L545.80,266.39L558.41,269.56L562.46,266.31L570.96,266.81L550.89,255.02L547.91,256.68L549.62,260.75L538.73,255.79L535.58,265.07L532.25,266.46L532.50,262.77L530.01,260.94L525.08,262.81Z" data-region="11l. Mesic Forest Zone" /><path class="region" d="M525.14,267.03L524.14,277.41L526.39,277.42L527.40,269.75L525.14,267.03Z" data-region="11m. Subalpine-Alpine Zone" /><path class="region" d="M491.58,101.02L484.37,101.38L479.39,96.56L461.54,88.78L455.36,91.82L459.45,72.37L453.75,65.34L439.56,64.22L438.73,70.38L429.40,71.11L434.22,64.76L429.32,56.52L416.67,53.80L417.40,49.36L425.63,45.55L419.54,38.91L424.89,33.48L441.24,43.26L447.09,43.83L447.84,41.14L442.03,33.53L435.37,30.40L443.12,24.38L444.22,21.96L442.04,19.61L431.59,24.60L425.75,21.52L425.90,18.34L442.25,9.29L441.41,3.14L443.59,-0.03L419.72,-0.03L417.81,5.06L411.74,7.99L416.30,19.75L426.13,30.54L421.23,33.83L415.94,32.46L416.73,35.54L407.94,35.97L408.08,38.25L419.59,40.63L423.80,46.15L417.11,46.67L407.08,41.32L405.42,45.62L414.76,56.07L426.40,58.95L420.66,61.89L415.60,59.18L410.41,60.55L424.40,74.54L418.23,77.38L421.35,80.70L428.57,76.19L443.08,76.25L443.75,73.71L454.56,71.78L452.47,90.85L445.30,94.64L447.69,96.77L455.78,95.62L462.28,99.83L466.89,94.99L477.56,98.69L486.42,106.93L491.58,101.02Z" data-region="15g. Western Okanogan Semiarid Foothills" /><path class="region" d="M485.01,29.50L482.16,23.20L482.90,29.48L480.41,34.52L485.01,29.50Z M587.87,13.96L584.55,13.85L584.95,16.62L587.87,13.96Z M558.04,11.18L560.48,7.52L558.51,5.99L558.04,11.18Z M580.64,9.07L584.06,6.31L582.85,4.83L580.00,6.86L580.64,9.07Z" data-region="15h. High Northern Rockies" /><path class="region" d="M536.07,106.39L543.52,102.44L546.80,107.34L549.94,106.20L550.09,102.79L545.67,98.26L547.73,93.74L557.46,86.49L584.26,87.29L566.10,77.62L554.20,77.37L549.19,80.42L550.79,69.59L548.53,70.24L541.53,55.58L533.91,62.59L531.07,61.11L530.85,57.64L535.24,52.96L548.68,52.03L547.45,44.05L534.24,39.81L537.61,30.85L546.94,27.75L545.85,24.62L550.95,20.15L550.41,12.78L552.67,7.76L550.68,4.15L552.61,-0.06L519.74,0.01L512.57,5.57L504.13,-0.03L499.43,-0.04L496.57,4.06L498.68,11.50L495.37,13.41L502.23,17.74L502.73,24.85L499.03,27.48L505.83,32.54L498.10,37.70L500.41,40.17L499.61,44.26L490.72,48.55L492.37,51.62L490.77,53.29L487.31,52.35L490.99,58.78L486.68,59.29L486.92,63.71L484.24,65.35L483.00,71.43L485.08,76.47L482.42,80.23L477.04,83.41L464.28,81.55L463.86,86.02L466.11,90.27L484.37,101.38L494.22,100.74L501.56,96.95L514.16,109.37L532.29,103.21L536.07,106.39Z M514.51,7.98L516.48,12.49L512.67,9.80L514.51,7.98Z M547.39,2.87L545.65,13.00L542.72,12.62L541.49,7.32L547.39,2.87Z M541.02,24.74L529.29,35.88L527.91,30.66L539.47,21.38L541.02,24.74Z M516.53,41.79L514.94,53.83L517.49,59.31L515.79,61.76L512.55,58.31L510.94,45.80L516.53,41.79Z M521.67,55.56L526.24,60.66L524.55,63.11L520.00,61.66L519.24,57.84L521.67,55.56Z M524.19,75.56L521.81,76.56L517.15,83.82L515.38,77.56L522.38,66.54L525.25,69.66L522.77,71.54L524.19,75.56Z M516.13,87.38L513.51,91.69L510.60,92.12L509.46,88.85L512.88,84.99L516.13,87.38Z M576.67,100.24L576.72,112.45L582.17,119.35L586.87,118.27L588.52,113.91L580.98,107.05L580.42,101.96L576.67,100.24Z M476.09,-0.02L471.73,1.93L469.46,8.58L465.17,8.27L464.03,-0.02L458.69,-0.03L455.95,4.82L466.88,14.61L463.09,19.30L460.75,29.29L455.97,33.60L463.31,40.16L465.13,34.57L470.58,37.49L475.01,35.08L477.32,28.72L472.85,25.68L479.07,15.25L476.44,13.68L485.73,4.81L486.38,1.77L476.09,-0.02Z" data-region="15r. Okanogan-Colville Xeric Valleys and Foothills" /><path class="region" d="M569.83,134.42L569.08,125.68L585.41,128.15L584.29,124.16L587.36,125.63L590.80,121.62L590.73,115.59L588.52,113.91L586.87,118.27L582.17,119.35L576.72,112.45L574.72,96.71L581.64,88.26L557.46,86.49L547.73,93.74L545.67,98.26L550.09,102.79L549.94,106.20L546.80,107.34L543.52,102.44L542.41,104.87L567.10,135.43L569.83,134.42Z" data-region="15s. Spokane Valley Outwash Plains" /><path class="region" d="M584.26,87.29L590.77,87.39L591.05,71.72L575.92,60.32L574.85,49.87L570.96,48.85L565.50,61.62L557.77,67.22L563.91,70.60L566.10,77.62L584.26,87.29Z M591.15,65.84L591.43,26.64L588.96,25.66L587.34,28.91L583.94,28.95L584.88,36.51L590.80,40.19L586.02,41.49L588.19,50.75L585.87,59.96L589.62,61.41L591.15,65.84Z" data-region="15u. Inland Maritime Foothills and Valleys" /><path class="region" d="M573.21,138.04L585.87,135.05L590.93,139.38L590.80,121.62L587.36,125.63L584.29,124.16L585.41,128.15L569.08,125.68L569.83,134.42L573.21,138.04Z" data-region="15v. Northern Idaho Hills and Low Relief Mountains" /><path class="region" d="M574.72,96.71L590.73,115.59L590.77,87.39L584.26,87.29L577.08,91.30L574.72,96.71Z M547.39,2.87L541.49,7.32L542.72,12.62L545.65,13.00L547.39,2.87Z M529.29,35.88L541.02,24.74L539.47,21.38L527.91,30.66L529.29,35.88Z M516.53,41.79L510.94,45.80L512.55,58.31L515.79,61.76L517.49,59.31L514.94,53.83L516.53,41.79Z M521.67,55.56L519.24,57.84L520.00,61.66L524.55,63.11L526.24,60.66L521.67,55.56Z M524.19,75.56L522.77,71.54L525.25,69.66L522.38,66.54L515.38,77.56L517.15,83.82L524.19,75.56Z M516.13,87.38L512.88,84.99L509.46,88.85L510.60,92.12L513.51,91.69L516.13,87.38Z" data-region="15w. Western Selkirk Maritime Forest" /><path class="region" d="M466.11,90.27L464.28,81.55L477.04,83.41L485.08,76.47L483.00,71.43L484.24,65.35L486.92,63.71L486.68,59.29L490.99,58.78L487.31,52.35L490.77,53.29L492.37,51.62L490.72,48.55L499.61,44.26L500.41,40.17L498.10,37.70L505.83,32.54L499.03,27.48L502.73,24.85L502.23,17.74L495.37,13.41L498.68,11.50L496.57,4.06L499.43,-0.04L482.31,-0.03L486.38,1.77L476.44,13.68L479.07,15.25L472.85,25.68L477.32,28.72L475.01,35.08L470.58,37.49L465.13,34.57L463.31,40.16L455.97,33.60L460.75,29.29L463.09,19.30L466.88,14.61L455.95,4.82L458.69,-0.03L443.59,-0.03L441.41,3.14L442.25,9.29L425.90,18.34L425.75,21.52L431.59,24.60L442.04,19.61L444.22,21.96L443.12,24.38L435.37,30.40L442.03,33.53L447.84,41.14L447.09,43.83L441.24,43.26L424.89,33.48L419.54,38.91L425.63,45.55L417.40,49.36L416.67,53.80L429.32,56.52L434.22,64.76L429.40,71.11L438.73,70.38L439.56,64.22L453.75,65.34L459.45,72.37L455.36,91.82L461.54,88.78L466.11,90.27Z M482.16,23.20L485.01,29.50L480.41,34.52L482.90,29.48L482.16,23.20Z M519.74,0.01L504.13,-0.03L512.57,5.57L519.74,0.01Z M516.48,12.49L514.51,7.98L512.67,9.80L516.48,12.49Z M476.09,-0.02L464.03,-0.02L463.38,5.44L469.46,8.58L471.73,1.93L476.09,-0.02Z" data-region="15x. Okanogan Highland Dry Forest" /><path class="region" d="M566.10,77.62L563.91,70.60L557.39,65.89L565.50,61.62L570.96,48.85L574.85,49.87L575.92,60.32L591.05,71.72L589.62,61.41L585.87,59.96L588.19,50.75L586.02,41.49L590.80,40.19L584.88,36.51L583.94,28.95L591.43,26.64L591.50,0.07L552.61,-0.06L550.68,4.15L552.67,7.76L550.41,12.78L550.95,20.15L545.85,24.62L546.94,27.75L537.61,30.85L534.24,39.81L547.45,44.05L548.68,52.03L535.24,52.96L530.85,57.64L531.07,61.11L533.91,62.59L541.53,55.58L548.53,70.24L550.79,69.59L549.19,80.42L554.20,77.37L566.10,77.62Z M587.87,13.96L584.95,16.62L584.55,13.85L587.87,13.96Z M558.04,11.18L558.51,5.99L560.48,7.52L558.04,11.18Z M580.64,9.07L580.00,6.86L582.85,4.83L584.06,6.31L580.64,9.07Z" data-region="15y. Selkirk Mountains" /><path class="region" d="M66.05,209.53L59.82,209.14L58.55,204.18L63.74,199.57L58.42,199.26L55.41,193.07L57.16,209.30L62.65,211.53L66.05,209.53Z M39.79,150.86L46.39,158.33L45.46,155.11L50.30,152.50L39.79,150.86Z M35.70,127.96L37.57,135.87L39.02,145.96L39.73,139.22L47.07,134.33L38.51,134.02L35.70,127.96Z M30.74,115.05L32.97,119.88L44.98,112.31L44.59,110.48L37.08,115.68L30.74,115.05Z M11.07,75.38L8.93,76.78L12.94,91.17L13.84,87.74L17.08,89.54L19.36,80.84L11.07,75.38Z M16.76,67.05L13.84,60.71L13.91,64.84L16.76,67.05Z M70.29,254.23L67.87,242.17L63.23,242.44L62.53,223.58L59.05,219.13L59.70,251.68L62.75,248.25L70.29,254.23Z M65.72,231.34L64.89,236.05L68.79,239.43L68.46,234.38L65.72,231.34Z M74.92,228.49L72.35,224.82L72.43,218.31L70.25,216.83L67.50,219.74L72.36,230.07L68.66,232.34L69.39,234.38L73.35,233.42L74.92,228.49Z M71.83,214.44L80.76,217.15L82.73,213.99L75.46,210.44L71.83,214.44Z M61.61,177.38L68.44,166.66L65.28,164.03L62.35,169.75L49.84,169.67L51.09,191.66L54.72,190.05L52.86,182.90L55.08,181.12L62.32,182.18L64.44,186.74L74.93,187.98L60.58,195.03L60.15,196.95L63.71,199.53L62.57,198.29L67.63,192.66L82.97,190.04L84.54,187.27L80.02,183.59L77.53,185.36L71.38,182.56L70.66,185.17L66.66,185.72L65.30,178.23L63.67,180.22L61.61,177.38Z" data-region="1a. Coastal Lowlands" /><path class="region" d="M59.82,209.14L72.40,208.07L74.80,210.14L72.35,203.24L81.46,201.41L83.97,195.87L82.97,190.04L67.63,192.66L62.08,201.54L60.34,200.48L58.55,204.18L59.82,209.14Z M45.46,155.11L49.84,169.67L62.35,169.75L65.28,164.03L68.44,166.66L77.84,155.79L80.62,158.40L82.13,147.70L76.81,152.84L72.54,152.98L73.41,148.13L82.13,137.60L89.73,134.99L88.15,131.99L69.15,140.09L58.68,139.44L57.43,136.39L61.15,134.38L62.78,129.00L69.24,128.70L74.04,121.74L39.18,131.38L37.53,120.00L45.38,116.37L47.58,112.22L56.95,112.52L59.55,109.04L48.81,108.39L43.60,103.65L36.05,102.12L34.47,98.67L38.91,89.44L53.34,89.47L54.16,86.90L44.18,84.48L34.67,88.73L36.73,80.66L29.00,74.58L15.70,77.03L13.83,74.69L16.76,67.05L12.33,65.62L11.07,75.38L19.36,80.84L17.08,89.54L13.84,87.74L12.94,91.17L16.99,102.85L23.43,107.08L24.24,102.63L26.79,101.81L35.34,104.49L42.84,111.16L30.74,115.05L37.08,115.68L44.59,110.48L32.97,119.88L38.51,134.02L47.07,134.33L39.73,139.22L39.02,145.96L41.95,152.22L50.30,152.50L45.46,155.11Z M15.51,64.26L16.88,61.03L23.07,59.82L14.41,56.29L8.94,57.26L15.51,64.26Z M70.29,254.23L73.73,255.28L87.79,249.14L89.32,252.78L103.68,252.57L107.62,256.25L107.38,260.64L111.87,263.92L120.44,263.24L115.15,262.36L110.92,257.98L107.33,252.36L109.81,250.17L107.45,247.28L92.73,251.98L96.04,245.29L74.92,228.49L73.35,233.42L69.39,234.38L70.21,238.43L67.92,240.23L70.29,254.23Z M70.25,216.83L83.03,217.32L93.50,227.51L100.73,225.74L95.54,223.60L87.34,211.91L83.92,211.29L80.76,217.15L71.83,214.44L70.25,216.83Z M65.30,178.23L63.98,173.97L61.91,174.70L63.67,180.22L65.30,178.23Z" data-region="1b. Coastal Uplands" /><path class="region" d="M16.88,61.03L13.83,74.69L15.70,77.03L22.70,74.29L31.93,76.19L37.26,82.48L34.67,88.73L44.18,84.48L54.16,86.90L53.34,89.47L38.91,89.44L34.47,98.67L36.05,102.12L43.60,103.65L48.81,108.39L59.55,109.04L56.95,112.52L47.58,112.22L45.38,116.37L37.53,120.00L39.18,131.38L74.04,121.74L69.24,128.70L62.78,129.00L61.15,134.38L57.43,136.39L58.68,139.44L69.15,140.09L88.15,131.99L89.73,134.99L88.12,135.94L97.11,140.64L114.44,136.47L122.49,130.63L113.79,134.74L113.31,127.85L107.89,127.96L111.37,124.48L105.69,124.18L99.65,127.85L99.19,124.42L94.83,125.77L95.62,121.57L87.02,120.92L91.33,113.34L83.06,116.88L83.06,113.19L79.89,113.36L86.89,102.06L80.32,102.52L82.79,95.16L94.65,98.88L97.78,106.14L102.60,102.86L104.82,109.69L108.46,105.80L104.06,98.34L96.65,93.90L98.80,91.46L95.81,90.85L96.15,87.64L104.76,85.82L103.77,84.14L98.84,84.79L95.35,80.00L86.53,77.05L60.47,76.05L23.07,59.82L16.88,61.03Z M82.31,85.47L93.45,86.85L93.27,90.86L80.50,88.35L82.31,85.47Z M23.43,107.08L30.67,114.96L42.84,111.16L35.34,104.49L26.79,101.81L24.24,102.63L23.43,107.08Z M124.25,124.56L126.51,120.88L116.06,123.56L124.25,124.56Z M127.05,119.36L128.17,115.63L122.57,114.20L120.16,110.55L116.79,113.35L122.12,115.71L119.15,117.66L120.36,119.71L127.05,119.36Z" data-region="1c. Low Olympics" /><path class="region" d="M72.35,224.82L87.73,235.05L90.71,226.76L83.03,217.32L72.43,218.31L72.35,224.82Z M82.73,213.99L81.67,205.41L75.85,201.78L72.35,203.24L74.80,210.14L82.73,213.99Z M120.44,263.24L127.38,259.98L138.91,264.78L137.29,260.66L138.92,250.66L132.14,243.55L132.54,236.86L128.77,231.08L120.00,226.02L104.41,230.72L100.12,228.54L93.37,230.30L92.37,234.90L100.33,242.92L119.51,249.80L107.33,252.36L115.15,262.36L120.44,263.24Z M131.18,252.13L125.21,243.40L127.00,241.77L132.24,249.51L131.18,252.13Z M76.46,159.38L85.22,168.12L84.53,160.06L89.07,159.13L89.82,155.08L85.77,155.48L84.89,149.59L87.61,152.43L95.89,144.27L97.95,144.93L92.60,153.50L95.07,155.85L116.27,158.22L117.47,148.47L128.31,142.54L121.42,139.46L136.42,135.87L148.29,121.02L151.36,115.42L149.88,111.36L144.83,109.12L144.95,101.58L140.33,101.18L137.21,102.50L138.09,110.02L132.14,111.61L133.03,115.59L128.17,115.63L126.03,123.57L130.08,122.07L130.50,125.19L116.84,135.38L97.11,140.64L88.12,135.94L82.13,137.60L73.41,148.13L72.54,152.98L76.81,152.84L82.13,147.70L80.62,158.40L77.84,155.79L76.46,159.38Z M123.83,132.49L120.67,137.48L120.44,133.60L123.83,132.49Z M95.81,90.85L104.71,90.30L111.72,92.79L111.61,90.19L107.35,89.06L107.59,86.48L104.76,85.82L96.15,87.64L95.81,90.85Z M82.31,85.47L80.50,88.35L93.27,90.86L93.45,86.85L82.31,85.47Z M112.10,215.00L119.61,215.74L119.81,211.91L114.68,205.96L110.25,205.92L112.10,215.00Z M138.68,178.85L132.74,176.69L131.08,170.07L122.99,166.13L125.05,172.07L122.49,174.37L116.66,172.84L121.01,180.49L118.67,192.13L120.61,196.57L125.81,199.34L132.55,196.97L135.31,192.99L134.32,190.45L139.60,184.25L138.68,178.85Z M111.38,89.33L112.30,86.50L109.16,86.35L108.90,88.72L111.38,89.33Z" data-region="1d. Volcanics" /><path class="region" d="M84.54,187.27L92.16,187.51L87.99,178.68L92.14,170.19L97.61,166.60L99.05,159.93L102.28,158.77L104.80,161.51L106.94,157.41L92.60,153.50L97.95,144.93L87.61,152.43L84.89,149.59L85.77,155.48L89.82,155.08L89.07,159.13L84.53,160.06L85.22,168.12L76.46,159.38L64.11,170.68L66.66,185.72L70.66,185.17L71.38,182.56L77.53,185.36L80.02,183.59L84.54,187.27Z" data-region="1e. Outwash" /><path class="region" d="M84.54,187.27L83.97,195.87L78.32,203.00L83.92,211.29L92.13,216.48L95.54,223.60L100.73,225.74L93.50,227.51L88.54,221.33L85.63,219.41L90.71,226.76L88.61,234.23L80.73,232.11L96.04,245.29L92.73,251.98L104.38,246.56L109.81,250.17L107.33,252.36L119.51,249.80L100.33,242.92L92.37,234.90L95.10,228.62L104.41,230.72L120.00,226.02L128.77,231.08L132.54,236.86L132.14,243.55L138.92,250.66L137.29,260.66L138.91,264.78L145.51,261.93L147.22,254.79L142.88,250.73L145.34,249.29L144.83,244.96L139.98,239.39L141.73,226.28L132.93,220.94L130.72,222.17L128.65,217.28L137.23,215.04L138.63,217.72L140.39,214.04L137.35,205.15L120.87,201.82L122.25,198.38L118.67,192.13L121.01,180.49L116.66,172.84L111.06,172.51L104.46,176.31L100.29,166.96L94.34,167.65L87.99,178.68L92.16,187.51L84.54,187.27Z M119.61,215.74L112.10,215.00L110.25,205.92L114.68,205.96L119.81,211.91L119.61,215.74Z M131.18,252.13L132.24,249.51L127.00,241.77L125.21,243.40L131.18,252.13Z" data-region="1f. Willapa Hills" /><path class="region" d="M184.56,18.69L195.14,16.47L193.69,10.25L195.26,4.82L202.36,-0.22L158.31,-0.20L159.05,3.91L153.80,4.07L158.94,8.06L156.11,10.56L166.65,20.90L166.33,26.32L171.53,19.53L178.78,23.40L176.34,26.57L177.94,27.54L184.56,18.69Z M133.62,2.64L137.30,-0.20L133.09,-0.18L133.62,2.64Z" data-region="2a. Fraser Lowland" /><path class="region" d="M200.61,186.10L206.60,173.26L215.71,170.49L219.03,164.45L215.07,158.23L202.14,156.12L199.33,146.94L201.67,140.02L197.28,140.13L195.50,145.38L196.36,164.92L183.71,160.46L191.55,167.61L197.73,168.86L196.84,173.06L200.12,179.11L198.14,186.47L200.61,186.10Z M183.23,161.31L184.91,162.46L183.67,160.68L183.23,161.31Z M199.33,37.43L192.58,40.51L189.18,35.81L186.04,39.55L183.45,37.44L178.37,40.75L180.08,49.06L175.39,49.69L178.14,57.73L187.67,65.70L185.64,69.39L188.69,74.84L195.92,74.05L200.20,77.49L199.38,88.47L202.88,101.66L214.76,110.14L214.67,117.11L218.75,114.43L217.10,110.93L218.88,107.51L237.46,106.71L237.00,104.19L231.38,103.09L214.78,103.74L204.92,88.66L206.96,75.76L211.48,76.57L213.56,72.68L212.02,68.23L199.43,71.56L189.80,64.98L192.59,58.41L191.27,55.50L192.76,52.75L199.77,51.64L199.21,47.12L213.34,47.57L213.89,44.99L211.06,43.52L200.06,43.29L199.33,37.43Z" data-region="2b. Eastern Puget Riverine Lowlands" /><path class="region" d="M175.45,49.45L169.33,44.21L164.95,45.85L164.58,53.13L167.04,54.69L175.45,49.45Z M128.92,34.77L126.56,40.30L127.62,43.51L137.19,50.12L139.29,48.74L138.88,40.62L128.92,34.77Z M139.22,38.19L144.13,41.82L145.89,38.19L141.44,37.68L139.22,38.19Z M139.55,28.39L136.30,27.10L137.19,29.94L139.55,28.39Z M148.74,39.65L144.10,49.41L150.17,51.54L152.83,50.19L148.74,39.65Z M171.73,41.78L166.28,38.56L166.51,43.58L171.73,41.78Z M154.67,38.27L152.89,40.55L154.40,43.33L157.33,40.55L154.67,38.27Z M162.30,36.61L159.74,39.56L160.98,42.49L165.05,40.12L162.30,36.61Z M145.35,26.72L137.88,35.93L141.25,33.01L143.96,37.24L150.16,36.88L146.68,31.93L146.04,28.65L148.16,28.18L151.35,34.82L159.42,31.26L145.35,26.72Z M168.86,30.48L164.70,29.54L167.67,32.25L168.86,30.48Z" data-region="2c. San Juan Islands" /><path class="region" d="M98.84,84.79L107.59,86.48L107.35,89.06L111.61,90.19L111.72,92.79L105.69,94.05L106.40,96.17L124.43,97.52L117.86,99.32L118.46,102.73L131.25,98.44L135.34,102.41L144.95,101.58L145.63,110.50L153.42,111.84L154.12,106.46L156.12,110.60L152.84,121.14L156.15,121.44L159.37,110.12L167.47,102.66L156.03,85.09L158.53,79.12L148.96,82.42L148.62,85.31L152.77,87.96L151.18,92.90L149.35,88.14L145.90,86.95L146.11,83.60L139.38,84.22L138.90,89.96L134.91,81.30L130.53,78.29L121.16,81.78L95.35,80.00L98.84,84.79Z M111.38,89.33L108.90,88.72L109.16,86.35L112.30,86.50L111.38,89.33Z M185.64,69.39L175.51,69.41L175.08,75.45L176.97,80.23L185.90,85.25L179.39,76.24L181.30,71.29L185.64,69.39Z M175.39,49.69L173.37,53.08L175.28,57.79L178.14,57.73L175.39,49.69Z M163.42,82.98L159.96,88.98L163.77,91.68L163.42,82.98Z M166.60,55.13L157.38,71.44L164.23,78.20L169.36,78.18L170.28,89.98L174.65,92.99L174.28,95.50L179.36,93.16L181.93,98.97L187.12,99.60L189.09,96.86L187.15,89.31L178.48,83.79L174.85,87.82L171.33,75.67L164.66,71.80L165.47,66.93L177.32,63.81L170.90,59.74L169.53,54.39L166.60,55.13Z" data-region="2d. Olympic Rainshadow" /><path class="region" d="M184.56,18.69L177.17,31.06L186.04,39.55L189.18,35.81L192.58,40.51L197.34,37.02L194.13,36.70L195.47,30.34L189.26,23.39L190.61,18.62L184.56,18.69Z M201.56,181.20L212.84,178.17L212.20,173.55L221.06,173.31L224.46,170.32L220.96,164.16L223.66,155.43L221.84,151.84L227.54,148.19L225.84,145.40L220.25,146.99L210.99,136.66L217.91,135.39L224.64,140.00L229.29,138.05L232.64,143.96L235.74,144.44L233.35,137.33L236.67,133.17L233.20,126.13L233.47,120.70L229.76,118.46L231.83,117.29L230.14,112.48L234.79,107.86L243.56,107.23L236.88,99.91L231.07,98.08L231.81,92.86L223.20,91.46L220.74,80.85L216.77,81.14L215.04,77.13L216.86,72.14L211.48,76.57L206.96,75.76L204.92,88.66L208.18,96.04L214.78,103.74L231.38,103.09L237.00,104.19L237.46,106.71L218.88,107.51L217.10,110.93L218.75,114.43L214.67,117.11L214.76,110.14L205.98,103.89L205.82,118.34L212.32,133.17L203.20,132.77L204.51,137.06L200.88,140.76L199.66,150.43L202.14,156.12L215.07,158.23L218.91,166.80L206.60,173.26L201.56,181.20Z M212.02,68.23L207.54,66.01L200.12,53.47L203.00,47.75L199.21,47.12L199.77,51.64L192.76,52.75L191.27,55.50L192.59,58.41L189.80,64.98L199.43,71.56L212.02,68.23Z M188.69,74.84L187.76,79.98L189.72,83.47L197.61,89.67L199.38,88.47L200.20,77.49L195.92,74.05L188.69,74.84Z" data-region="2e. Eastern Puget Uplands" /><path class="region" d="M137.12,187.70L140.84,187.82L160.64,175.66L155.18,170.29L150.60,169.90L138.68,178.85L139.60,184.25L137.12,187.70Z M138.67,178.79L145.05,171.12L144.40,169.11L139.81,172.95L138.60,170.93L142.51,169.36L145.43,159.02L151.59,156.17L153.23,150.80L156.09,157.26L152.77,162.44L158.59,169.04L160.85,162.33L158.38,159.80L163.86,151.29L162.88,158.54L165.00,158.51L171.12,161.43L174.14,158.72L172.25,154.71L178.19,137.74L174.25,136.46L173.66,130.34L169.75,134.26L162.08,128.96L163.73,124.88L169.24,132.54L170.84,125.94L169.31,123.54L174.39,116.17L179.98,114.18L175.92,100.64L170.68,99.48L172.29,104.64L163.97,110.87L158.49,123.44L146.43,127.45L131.01,148.99L136.88,151.80L147.54,145.85L146.62,149.02L131.57,153.58L127.92,152.23L136.42,135.87L132.97,135.63L121.42,139.46L128.31,142.54L117.47,148.47L116.27,158.22L106.94,157.41L104.80,161.51L102.28,158.77L97.51,162.72L97.61,166.60L100.29,166.96L104.46,176.31L111.06,172.51L122.49,174.37L125.05,172.07L122.99,166.13L131.08,170.07L132.74,176.69L138.67,178.79Z M186.94,166.53L175.34,155.69L170.91,168.63L165.43,173.89L171.44,168.20L172.20,165.59L186.94,166.53Z M197.28,140.13L204.51,137.06L203.20,132.77L212.32,133.17L206.98,122.61L205.98,103.89L202.88,101.66L200.10,90.76L198.79,94.68L192.44,97.20L190.26,106.09L185.71,110.33L187.38,117.75L184.20,125.76L190.00,129.12L184.47,132.18L191.13,152.47L182.11,157.26L196.36,164.92L195.50,145.38L197.28,140.13Z M164.66,168.83L159.70,171.21L162.51,173.52L164.66,168.83Z M163.80,163.49L160.57,165.96L164.10,167.30L166.57,165.04L163.80,163.49Z M151.43,157.17L146.13,159.47L145.59,163.13L149.35,169.61L151.89,165.52L149.70,162.04L151.43,157.17Z M165.32,159.28L169.08,164.43L171.09,163.13L165.32,159.28Z M180.93,140.07L176.75,143.55L175.69,153.09L178.19,154.48L178.99,149.83L180.96,153.27L183.01,150.83L180.93,140.07Z M178.60,126.35L172.88,119.19L171.67,125.31L176.03,131.84L178.60,126.35Z" data-region="2f. Central Puget Lowland" /><path class="region" d="M122.25,198.38L120.87,201.82L137.35,205.15L139.06,210.59L141.16,208.96L140.23,203.04L145.88,200.94L159.44,205.79L152.84,201.58L153.45,197.94L161.81,196.84L180.64,205.14L181.59,200.64L189.05,200.83L193.67,197.62L200.12,179.11L196.84,173.06L197.73,168.86L187.91,165.02L172.20,165.59L163.64,175.92L137.12,187.70L132.55,196.97L122.25,198.38Z" data-region="2g. Southern Puget Prairies" /><path class="region" d="M139.01,263.19L157.56,281.88L155.18,277.20L159.89,271.38L155.44,271.51L156.74,264.49L152.60,264.52L159.39,253.70L160.65,255.81L166.71,248.15L166.08,241.76L173.30,236.59L173.45,231.27L160.71,233.97L151.65,240.83L146.05,241.50L145.34,249.29L142.88,250.73L147.22,254.79L145.51,261.93L139.01,263.19Z M141.16,208.96L143.98,208.87L144.13,216.76L155.45,216.05L172.89,220.83L161.99,215.72L161.20,211.24L164.41,207.72L160.37,204.60L145.88,200.94L140.23,203.04L141.16,208.96Z" data-region="2h. Cowlitz/Chehalis Foothills" /><path class="region" d="M144.83,244.96L147.89,240.40L151.65,240.83L160.71,233.97L171.66,230.83L178.21,221.57L155.45,216.05L144.13,216.76L143.98,208.87L139.06,210.59L140.39,214.04L138.63,217.72L137.23,215.04L128.65,217.28L130.72,222.17L132.93,220.94L141.73,226.28L139.98,239.39L144.83,244.96Z" data-region="2i. Cowlitz/Newaukum Prairie Floodplains" /><path class="region" d="M151.67,277.92L156.24,289.69L157.85,309.17L182.45,317.82L194.51,318.66L185.84,310.41L183.76,312.88L180.12,308.84L178.83,297.29L169.56,289.07L161.15,288.11L161.02,284.49L167.75,282.44L159.13,283.06L151.67,277.92Z" data-region="3a. Portland/Vancouver Basin" /><path class="region" d="M190.51,319.18L196.80,319.28L200.69,317.48L201.10,312.44L188.83,311.20L183.18,307.83L181.23,305.41L182.37,299.09L176.61,290.27L176.62,285.57L173.17,286.07L171.71,282.12L161.02,284.49L161.15,288.11L169.56,289.07L178.83,297.29L180.12,308.84L183.76,312.88L185.84,310.41L194.51,318.66L190.51,319.18Z" data-region="3d. Valley Foothills" /><path class="region" d="M198.14,186.47L193.67,197.62L189.05,200.83L181.59,200.64L180.64,205.14L161.81,196.84L153.45,197.94L152.84,201.58L164.41,207.72L161.20,211.24L161.99,215.72L178.21,221.57L171.66,230.83L174.40,234.44L173.30,236.59L166.08,241.76L166.71,248.15L160.65,255.81L159.39,253.70L152.60,264.52L156.74,264.49L155.44,271.51L159.89,271.38L155.18,277.20L157.56,281.88L171.71,282.12L173.17,286.07L176.62,285.57L176.61,290.27L182.37,299.09L181.23,305.41L188.83,311.20L201.10,312.44L200.69,317.48L215.36,312.98L225.69,305.82L244.86,304.40L228.20,288.13L222.74,286.52L218.67,279.07L211.49,287.02L208.68,293.13L210.94,295.49L206.22,296.57L206.79,290.93L199.89,291.30L205.89,282.01L206.42,279.23L203.13,279.69L203.26,274.22L212.30,278.78L210.97,274.62L222.46,273.61L224.73,269.11L222.98,265.78L232.42,261.68L230.15,257.40L220.21,267.20L217.79,266.64L217.21,259.15L211.87,259.03L212.80,261.97L208.02,268.68L202.76,267.72L204.07,264.78L193.65,269.83L185.64,262.16L180.92,263.91L175.17,258.26L182.00,260.99L184.68,257.54L192.53,260.43L195.40,257.84L182.71,252.36L196.00,252.77L197.64,248.82L189.58,250.05L190.10,244.04L195.40,244.62L195.04,235.44L210.64,235.56L218.63,244.94L218.68,239.07L221.41,241.81L224.14,237.63L227.93,239.18L228.45,242.19L232.90,238.70L237.51,246.54L239.38,245.20L235.45,238.37L225.71,233.13L244.16,221.26L247.21,221.82L249.93,212.97L247.66,209.37L246.55,213.23L243.42,211.27L242.71,215.05L237.52,217.73L231.13,213.81L230.71,208.05L209.76,204.38L206.55,196.97L215.65,196.73L215.50,193.59L220.79,192.81L217.14,188.79L220.71,184.55L217.65,180.34L221.94,178.74L223.15,174.39L230.57,173.98L233.03,180.14L232.93,174.87L236.78,171.72L241.35,173.04L244.76,179.35L247.29,179.60L246.67,174.90L252.30,174.48L227.08,166.46L225.17,162.35L228.09,160.06L231.12,163.58L249.73,168.92L258.25,166.34L264.94,169.26L259.59,163.96L261.01,160.50L252.53,165.56L232.95,156.52L232.06,152.10L235.38,147.69L238.77,151.74L253.28,155.10L232.64,143.96L229.29,138.05L224.64,140.00L217.91,135.39L210.99,136.66L220.25,146.99L225.84,145.40L227.54,148.19L221.84,151.84L223.66,155.43L220.96,164.16L224.46,170.32L221.06,173.31L212.20,173.55L212.84,178.17L205.28,178.72L198.14,186.47Z M182.03,208.60L183.72,213.85L188.00,212.27L193.54,213.93L190.67,220.66L186.77,213.82L180.95,214.19L182.03,208.60Z M207.13,212.86L223.19,210.85L234.32,215.79L234.11,218.46L219.80,221.19L218.55,225.85L213.86,226.70L213.11,224.12L206.40,225.53L206.18,219.39L200.89,219.25L202.84,214.73L209.10,217.65L207.13,212.86Z M223.53,224.06L233.17,220.24L233.25,224.68L230.00,225.85L228.21,222.88L226.63,227.28L223.53,224.06Z M199.33,274.02L196.48,278.18L194.45,276.70L199.33,274.02Z M201.43,295.89L204.63,295.13L205.20,299.86L197.25,303.43L194.63,300.08L200.94,300.07L201.43,295.89Z" data-region="4a. Western Cascades Lowlands and Valleys" /><path class="region" d="M234.38,294.35L236.05,286.78L238.58,285.08L228.80,284.54L226.51,272.40L230.03,266.31L243.05,258.29L245.84,253.77L243.44,253.64L243.87,249.67L248.74,250.05L245.33,246.32L254.26,239.33L270.23,241.00L266.15,238.34L271.06,231.55L269.21,227.14L271.36,225.58L266.99,219.24L272.46,209.06L269.01,207.86L271.19,198.18L267.27,198.79L271.69,190.69L265.59,189.20L276.05,186.74L269.93,183.20L272.18,176.58L286.21,180.27L272.46,176.03L269.97,171.96L278.64,170.97L287.97,177.65L278.64,165.01L267.85,159.36L238.77,151.74L235.38,147.69L232.06,152.10L235.58,158.72L252.53,165.56L261.01,160.50L259.59,163.96L264.94,169.26L258.25,166.34L249.73,168.92L231.12,163.58L228.09,160.06L225.17,162.35L227.08,166.46L252.30,174.48L246.67,174.90L247.29,179.60L244.76,179.35L241.35,173.04L236.78,171.72L232.93,174.87L233.03,180.14L230.57,173.98L223.15,174.39L221.94,178.74L217.65,180.34L220.71,184.55L217.14,188.79L220.79,192.81L215.50,193.59L215.65,196.73L206.55,196.97L209.76,204.38L230.71,208.05L231.13,213.81L237.52,217.73L242.71,215.05L243.42,211.27L246.55,213.23L247.66,209.37L249.93,212.97L247.21,221.82L244.16,221.26L225.71,233.13L235.45,238.37L239.38,245.20L237.51,246.54L232.90,238.70L228.45,242.19L227.93,239.18L224.14,237.63L221.41,241.81L218.68,239.07L218.63,244.94L210.64,235.56L195.04,235.44L195.40,244.62L190.10,244.04L189.58,250.05L197.64,248.82L196.00,252.77L182.71,252.36L195.40,257.84L192.53,260.43L184.68,257.54L182.00,260.99L175.17,258.26L180.92,263.91L185.64,262.16L193.65,269.83L204.07,264.78L202.76,267.72L208.02,268.68L212.80,261.97L211.87,259.03L217.21,259.15L217.79,266.64L220.21,267.20L230.15,257.40L232.42,261.68L222.98,265.78L224.73,269.11L222.46,273.61L210.97,274.62L212.30,278.78L203.26,274.22L203.13,279.69L206.42,279.23L205.89,282.01L199.89,291.30L206.79,290.93L206.22,296.57L210.94,295.49L208.68,293.13L211.49,287.02L218.67,279.07L222.74,286.52L234.38,294.35Z M255.98,181.11L261.40,189.92L256.83,197.05L258.75,204.22L245.35,201.02L243.42,203.97L238.19,204.51L240.43,213.95L235.01,204.75L228.77,204.70L225.50,201.25L223.50,194.97L226.11,196.69L227.17,187.78L230.66,190.60L233.81,187.72L237.80,191.86L239.98,188.14L242.36,190.81L246.72,185.53L249.55,186.74L248.42,191.43L242.95,194.81L244.12,197.60L253.10,190.79L255.98,181.11Z M260.30,210.50L265.97,209.53L262.37,215.14L260.30,210.50Z M253.91,221.87L263.15,230.71L263.37,235.03L257.85,237.39L257.63,232.68L251.81,230.17L253.91,221.87Z M182.03,208.60L180.95,214.19L186.77,213.82L190.67,220.66L193.54,213.93L188.00,212.27L183.72,213.85L182.03,208.60Z M223.19,210.85L207.13,212.86L209.10,217.65L202.84,214.73L200.89,219.25L206.18,219.39L206.40,225.53L213.11,224.12L213.86,226.70L218.55,225.85L219.80,221.19L234.11,218.46L234.32,215.79L223.19,210.85Z M233.17,220.24L223.53,224.06L226.63,227.28L228.21,222.88L230.00,225.85L233.25,224.68L233.17,220.24Z M199.33,274.02L194.45,276.70L196.48,278.18L199.33,274.02Z M201.43,295.89L200.94,300.07L194.63,300.08L197.25,303.43L205.20,299.86L204.63,295.13L201.43,295.89Z M275.31,204.14L273.23,205.18L274.45,208.03L275.31,204.14Z" data-region="4b. Western Cascades Montane Highlands" /><path class="region" d="M238.58,285.08L242.60,275.88L242.04,268.96L260.02,267.29L263.87,258.77L259.72,248.61L265.60,242.11L263.45,240.58L262.70,243.32L254.26,239.33L245.33,246.32L248.74,250.05L243.87,249.67L243.44,253.64L245.84,253.77L243.05,258.29L230.03,266.31L226.51,272.40L228.80,284.54L238.58,285.08Z M260.60,260.84L254.12,264.11L248.39,260.49L247.98,255.89L256.86,253.30L260.60,260.84Z" data-region="4c. Cascade Crest Montane Forest" /><path class="region" d="M286.21,180.27L287.97,177.65L278.64,170.97L269.97,171.96L272.46,176.03L286.21,180.27Z M272.46,209.06L275.31,204.14L271.19,198.18L269.01,207.86L272.46,209.06Z M259.89,240.79L262.70,243.32L263.45,240.58L265.60,242.11L270.23,241.00L262.03,239.08L259.89,240.79Z M255.98,181.11L253.10,190.79L244.12,197.60L242.95,194.81L248.42,191.43L249.55,186.74L246.72,185.53L242.36,190.81L239.98,188.14L237.80,191.86L233.81,187.72L230.66,190.60L227.17,187.78L226.11,196.69L223.50,194.97L225.50,201.25L228.77,204.70L235.01,204.75L240.43,213.95L238.19,204.51L243.42,203.97L245.35,201.02L258.75,204.22L256.83,197.05L261.40,189.92L255.98,181.11Z M265.97,209.53L260.30,210.50L262.37,215.14L265.97,209.53Z M253.91,221.87L251.81,230.17L257.63,232.68L257.85,237.39L263.37,235.03L263.15,230.71L253.91,221.87Z M260.60,260.84L256.86,253.30L247.98,255.89L248.39,260.49L254.12,264.11L260.60,260.84Z" data-region="4d. Cascade Subalpine/Alpine" /><path class="region" d="M190.61,18.62L189.26,23.39L195.47,30.34L194.13,36.70L199.33,37.43L200.06,43.29L213.89,44.99L213.34,47.57L203.00,47.75L200.12,53.47L204.15,60.70L213.56,72.68L216.86,72.14L215.04,77.13L216.77,81.14L220.74,80.85L223.20,91.46L231.81,92.86L231.07,98.08L236.88,99.91L243.56,107.23L234.79,107.86L230.14,112.48L231.83,117.29L229.76,118.46L233.47,120.70L233.20,126.13L236.67,133.17L233.35,137.33L235.74,144.44L245.05,146.25L241.90,141.14L248.47,136.16L256.64,136.08L253.36,129.88L242.42,137.25L235.58,138.24L238.98,134.37L240.52,126.20L245.63,125.44L244.66,122.51L238.87,121.78L240.49,116.49L245.19,115.85L243.89,110.20L250.25,111.96L257.93,119.35L267.70,120.74L271.70,126.76L270.28,120.17L277.18,119.33L269.28,117.87L269.81,111.71L275.07,109.30L269.99,109.87L268.09,104.08L269.05,100.05L273.88,98.71L277.08,95.37L267.51,99.22L265.57,102.27L258.12,101.14L251.33,107.99L238.48,98.38L250.06,96.46L249.29,93.85L229.94,87.25L234.00,85.62L240.71,89.96L247.76,85.93L254.12,88.16L253.79,84.31L251.23,81.81L247.03,84.45L238.17,83.87L230.08,79.36L238.24,82.24L239.26,80.18L221.86,72.36L223.43,69.74L233.88,72.67L234.45,68.93L247.10,72.89L260.38,84.09L263.48,82.61L248.65,70.41L255.87,62.46L260.45,69.08L281.84,71.87L280.32,71.02L283.24,65.76L276.48,68.04L262.84,65.84L260.90,58.96L253.41,56.31L251.90,51.79L263.96,54.54L257.68,47.10L262.16,48.75L268.25,44.44L274.75,51.31L276.01,56.62L280.91,48.86L285.78,48.97L284.73,46.41L275.40,47.85L272.79,43.79L277.73,42.61L275.49,40.93L261.68,40.99L270.33,32.45L273.63,35.48L274.78,30.44L280.16,27.70L285.99,33.11L288.11,32.00L285.77,27.24L291.23,24.02L289.62,17.05L291.18,11.15L288.77,5.81L286.32,3.67L285.27,6.71L281.12,7.68L286.43,12.48L285.63,17.64L274.04,14.05L285.05,20.71L284.63,24.88L274.50,20.05L273.67,21.84L277.67,24.53L273.87,27.98L269.44,24.28L267.29,25.90L269.40,28.80L262.03,33.12L260.76,26.94L256.10,28.87L258.27,36.31L250.51,34.21L253.10,38.36L256.40,38.02L255.03,41.49L244.76,44.82L248.59,39.97L242.01,40.66L243.11,36.89L245.85,36.45L246.21,26.82L252.37,21.08L260.72,19.90L259.99,14.90L249.01,18.67L247.91,21.58L244.33,21.32L243.32,16.89L228.56,27.11L233.27,31.80L230.61,38.83L212.17,35.88L209.34,33.02L209.40,27.06L211.91,24.29L223.74,24.35L215.24,20.99L214.56,16.88L209.35,18.95L208.73,15.86L209.08,10.72L212.79,8.99L217.78,13.02L221.84,12.69L222.80,16.11L225.30,11.04L227.30,10.29L228.57,13.71L233.24,9.55L244.03,14.27L243.92,10.18L248.49,8.48L246.87,7.68L241.48,8.16L240.81,5.76L218.82,8.59L221.16,5.00L213.04,4.25L212.34,-0.14L202.36,-0.22L195.26,4.82L193.69,10.25L195.14,16.47L190.61,18.62Z M197.58,26.46L193.43,21.19L194.86,18.46L197.15,22.78L197.58,26.46Z M209.31,39.16L204.03,40.84L202.75,32.73L209.31,39.16Z M219.65,46.48L223.45,46.52L235.93,47.89L232.98,53.26L222.55,57.81L218.08,50.41L219.65,46.48Z M236.02,54.73L239.34,58.90L237.25,62.22L233.04,64.21L222.13,62.40L227.20,58.20L231.29,62.56L235.33,60.83L230.68,56.10L236.02,54.73Z M204.31,50.23L211.33,49.25L214.92,53.45L213.66,56.97L203.97,56.24L204.31,50.23Z M267.46,109.30L264.83,116.50L260.45,116.51L253.44,107.56L259.73,102.57L266.54,104.54L267.46,109.30Z M264.21,-0.06L265.90,2.16L268.78,-0.05L264.21,-0.06Z" data-region="77a. North Cascades Lowland Forests" /><path class="region" d="M253.28,155.10L275.45,163.52L278.30,161.08L281.45,162.88L282.30,144.83L286.06,144.63L285.30,150.88L289.99,151.85L287.75,147.74L288.99,142.30L292.41,143.06L293.06,139.80L278.28,129.44L285.42,142.52L276.41,133.49L269.35,139.97L269.45,146.38L265.59,141.75L257.42,144.87L254.75,142.52L255.46,140.27L264.91,141.03L268.93,135.91L265.15,135.56L259.60,138.91L256.64,136.08L248.47,136.16L241.90,141.14L245.05,146.25L237.23,145.53L253.28,155.10Z M240.46,13.42L232.57,25.49L243.32,16.89L244.33,21.32L247.91,21.58L249.01,18.67L245.65,19.23L243.99,16.17L245.84,12.88L261.99,12.36L260.50,9.26L263.89,9.11L269.76,19.90L274.50,20.05L284.63,24.88L285.05,20.71L274.04,14.05L277.64,15.64L279.41,13.30L285.63,17.64L286.43,12.48L281.12,7.68L285.27,6.71L286.32,3.67L288.77,5.81L291.18,11.15L289.62,17.05L291.23,24.02L285.77,27.24L288.11,32.00L285.99,33.11L280.16,27.70L274.78,30.44L275.69,32.81L270.83,41.79L277.73,42.61L277.82,38.79L286.12,37.38L294.09,48.92L289.13,48.24L287.97,50.75L280.91,48.86L276.01,56.62L274.75,51.31L268.25,44.44L262.16,48.75L257.68,47.10L263.96,54.54L251.90,51.79L253.41,56.31L260.90,58.96L262.84,65.84L270.66,67.18L275.78,62.46L273.27,57.75L266.70,54.53L271.43,52.41L274.59,57.39L280.36,55.00L282.92,59.10L274.66,64.67L273.79,67.24L276.48,68.04L284.57,61.62L285.16,53.78L289.94,52.38L290.48,59.32L288.50,62.26L292.31,63.01L291.56,65.88L283.24,65.76L280.32,71.02L282.47,68.42L294.77,67.28L293.97,72.69L289.65,74.05L290.85,70.52L288.26,70.13L279.15,72.74L275.27,69.68L260.45,69.08L255.87,62.46L248.65,70.41L263.48,82.61L260.38,84.09L247.10,72.89L241.07,72.10L239.95,78.82L237.21,73.80L239.36,70.69L234.45,68.93L233.88,72.67L223.43,69.74L221.86,72.36L239.26,80.18L238.24,82.24L230.08,79.36L238.17,83.87L247.03,84.45L251.23,81.81L254.80,90.17L261.67,94.56L263.04,90.44L274.08,93.62L278.90,91.44L288.36,96.26L291.09,94.50L290.87,97.95L285.99,100.05L285.86,96.40L281.29,95.39L281.64,103.90L284.13,106.50L289.17,105.35L291.29,109.23L297.31,108.30L294.11,107.50L294.66,105.33L299.29,105.89L294.68,95.44L304.17,105.50L307.03,104.92L307.90,100.35L304.37,93.19L309.76,92.44L309.71,96.45L315.70,97.38L312.98,90.46L315.28,89.00L314.71,85.92L311.51,81.41L306.25,88.21L302.77,77.94L292.98,84.74L295.89,87.52L294.32,89.07L286.68,86.83L281.33,89.59L263.67,81.89L262.06,77.99L275.29,81.17L277.50,85.58L279.64,79.42L273.08,76.87L277.45,72.80L278.85,76.36L285.27,78.54L290.33,84.30L300.16,73.65L306.62,75.75L305.65,70.84L300.52,71.77L299.36,68.46L303.74,63.77L304.66,67.74L308.35,64.87L307.55,57.44L319.51,54.35L316.26,38.35L310.29,40.83L309.30,34.14L316.52,31.06L318.18,24.89L312.90,19.20L312.70,13.81L308.66,11.99L310.91,4.11L303.99,1.25L301.25,8.26L298.62,1.16L291.27,3.33L289.14,-0.05L276.96,-0.10L274.53,4.03L275.82,6.62L268.47,9.29L264.54,6.47L263.96,-0.06L258.55,0.02L253.17,4.26L253.02,0.06L242.76,0.16L242.52,3.28L248.49,8.48L243.92,10.18L244.03,14.27L240.46,13.42Z M292.09,14.24L302.49,15.22L302.27,17.33L292.17,16.22L292.09,14.24Z M293.74,18.50L298.74,22.70L304.55,17.97L302.62,24.12L296.61,25.25L295.72,21.89L293.01,22.62L293.74,18.50Z M309.60,26.45L311.73,32.23L308.13,33.29L305.56,29.23L309.60,26.45Z M291.51,35.15L303.48,37.98L308.27,45.62L303.95,44.45L302.89,39.22L294.13,38.29L291.51,35.15Z M295.70,40.27L299.63,43.68L296.50,47.75L293.71,43.32L295.70,40.27Z M281.64,29.88L279.47,34.86L277.49,32.42L281.64,29.88Z M260.68,56.94L268.68,56.45L269.51,59.80L264.94,57.05L260.68,56.94Z M312.62,51.12L315.05,53.65L306.68,55.24L312.62,51.12Z M305.10,98.49L301.78,97.79L300.82,87.41L302.66,91.25L305.10,98.49Z M228.57,13.71L235.57,15.30L237.24,11.11L233.24,9.55L228.57,13.71Z M233.27,31.80L221.77,20.00L225.94,18.48L225.77,13.67L228.83,12.45L227.30,10.29L222.80,16.11L221.84,12.69L217.78,13.02L214.78,9.68L209.08,10.72L209.35,18.95L214.56,16.88L215.24,20.99L223.74,24.35L211.91,24.29L209.40,27.06L209.34,33.02L212.17,35.88L230.61,38.83L233.27,31.80Z M217.89,27.23L220.66,30.75L219.03,32.03L217.89,27.23Z M255.00,17.76L252.41,15.72L250.02,18.56L252.04,19.20L255.00,17.76Z M244.93,30.20L249.66,30.72L253.77,21.28L260.23,23.61L255.23,28.96L255.20,33.05L246.36,31.57L245.85,36.45L243.11,36.89L242.01,40.66L248.59,39.97L244.76,44.82L255.03,41.49L256.40,38.02L253.10,38.36L250.51,34.21L258.27,36.31L256.10,28.87L260.76,26.94L262.03,33.12L269.40,28.80L267.29,25.90L269.44,24.28L273.87,27.98L277.67,24.53L273.67,20.52L268.32,23.20L256.74,19.22L252.37,21.08L244.93,30.20Z M268.93,41.89L270.08,37.99L267.91,36.32L273.70,34.17L272.36,32.07L261.68,40.99L268.93,41.89Z M278.21,48.15L276.04,47.34L277.24,42.84L273.34,42.49L275.40,47.85L278.21,48.15Z M285.78,48.97L287.06,46.16L279.20,45.88L279.09,47.79L284.73,46.41L285.78,48.97Z M249.29,93.85L252.24,98.30L255.33,94.69L248.78,86.05L240.71,89.96L230.43,85.52L237.94,91.70L249.29,93.85Z M277.08,95.37L270.51,95.72L266.37,99.97L260.00,95.61L251.44,101.52L246.42,101.28L247.56,95.54L238.48,98.38L251.33,107.99L258.12,101.14L265.57,102.27L267.51,99.22L277.08,95.37Z M274.62,108.25L270.08,106.38L271.47,103.05L274.40,103.11L275.99,96.34L269.05,100.05L268.09,104.08L269.99,109.87L274.62,108.25Z M275.33,117.67L275.07,109.30L269.81,111.71L269.28,117.87L275.33,117.67Z M271.65,124.72L278.08,123.52L277.18,119.33L270.28,120.17L271.65,124.72Z M242.42,137.25L253.83,126.48L252.22,123.30L257.00,120.34L261.70,128.79L263.68,123.82L265.64,123.67L267.51,129.08L271.70,126.76L267.70,120.74L257.93,119.35L250.25,111.96L243.89,110.20L245.19,115.85L240.49,116.49L238.87,121.78L244.66,122.51L245.63,125.44L240.52,126.20L238.98,134.37L234.95,136.73L242.42,137.25Z M241.48,8.16L242.14,6.05L240.30,5.22L233.99,5.50L240.10,0.19L212.34,-0.14L213.04,4.25L221.16,5.00L218.82,8.59L240.81,5.76L241.48,8.16Z M197.58,26.46L197.15,22.78L194.86,18.46L193.43,21.19L197.58,26.46Z M209.31,39.16L202.75,32.73L204.03,40.84L209.31,39.16Z M235.93,47.89L219.65,46.48L218.08,50.41L222.55,57.81L232.98,53.26L235.93,47.89Z M236.02,54.73L230.68,56.10L235.33,60.83L231.29,62.56L227.20,58.20L222.13,62.40L233.04,64.21L237.25,62.22L239.34,58.90L236.02,54.73Z M211.33,49.25L204.31,50.23L203.97,56.24L213.66,56.97L214.92,53.45L211.33,49.25Z M267.46,109.30L266.54,104.54L259.73,102.57L253.44,107.56L260.45,116.51L264.83,116.50L267.46,109.30Z M292.03,152.74L296.16,148.15L295.18,143.51L292.17,147.72L292.03,152.74Z M304.86,137.29L303.13,134.58L300.39,135.67L302.52,138.01L304.86,137.29Z M306.93,121.36L301.07,113.98L294.96,112.54L299.46,110.71L298.15,108.56L291.31,112.04L285.39,110.68L283.81,113.74L286.69,115.60L287.96,130.80L293.64,128.62L293.48,136.86L295.88,138.84L301.89,130.32L300.33,125.81L306.93,121.36Z M298.68,115.67L298.01,127.25L288.80,119.63L296.10,118.12L298.68,115.67Z" data-region="77b. North Cascades Highland Forests" /><path class="region" d="M248.49,8.48L242.52,3.28L242.76,0.16L236.69,1.55L233.99,5.50L248.49,8.48Z M237.24,11.11L235.57,15.30L225.77,13.67L225.94,18.48L221.77,20.00L228.56,27.11L232.57,25.49L240.46,13.42L237.24,11.11Z M245.65,19.23L252.41,15.72L255.00,17.76L259.99,14.90L260.72,19.90L268.32,23.20L274.50,20.05L269.76,19.90L263.89,9.11L260.50,9.26L261.99,12.36L245.84,12.88L243.99,16.17L245.65,19.23Z M244.93,30.20L255.20,33.05L255.23,28.96L260.23,23.61L253.77,21.28L249.66,30.72L244.93,30.20Z M280.98,16.14L279.41,13.30L277.64,15.64L280.98,16.14Z M273.70,34.17L267.91,36.32L270.08,37.99L268.93,41.89L273.70,34.17Z M277.82,38.79L276.04,47.34L278.21,48.15L282.38,45.45L287.06,46.16L284.36,48.25L287.97,50.75L289.13,48.24L294.09,48.92L286.12,37.38L277.82,38.79Z M273.79,67.24L279.08,60.08L282.92,59.10L280.36,55.00L274.59,57.39L271.43,52.41L266.70,54.53L273.27,57.75L275.78,62.46L270.66,67.18L273.79,67.24Z M278.93,67.46L291.56,65.88L292.31,63.01L288.50,62.26L290.48,59.32L289.94,52.38L285.16,53.78L284.57,61.62L277.94,65.36L278.93,67.46Z M280.32,71.02L288.26,70.13L290.85,70.52L289.65,74.05L293.97,72.69L294.77,67.28L282.47,68.42L280.32,71.02Z M239.36,70.69L237.21,73.80L239.95,78.82L241.54,75.11L239.36,70.69Z M248.78,86.05L255.33,94.69L252.24,98.30L247.56,95.54L246.42,101.28L251.44,101.52L260.00,95.61L266.37,99.97L270.51,95.72L277.08,95.37L274.40,103.11L271.47,103.05L270.08,106.38L274.62,108.25L278.08,123.52L273.43,123.26L270.65,128.55L267.51,129.08L265.64,123.67L261.70,128.79L257.00,120.34L252.22,123.30L253.83,126.48L251.28,131.01L253.36,129.88L259.60,138.91L268.93,135.91L264.91,141.03L255.46,140.27L254.75,142.52L257.42,144.87L265.59,141.75L269.45,146.38L269.35,139.97L276.41,133.49L285.42,142.52L278.28,129.44L293.06,139.80L292.41,143.06L288.99,142.30L289.52,154.82L292.19,155.34L292.17,147.72L295.18,143.51L298.00,147.62L310.65,146.06L309.45,143.75L298.78,144.25L296.75,141.65L307.86,142.08L311.13,138.02L308.19,135.57L302.52,138.01L300.39,135.67L304.26,131.33L301.89,130.32L295.88,138.84L293.48,136.86L293.64,128.62L287.96,130.80L286.69,115.60L283.81,113.74L285.39,110.68L291.31,112.04L298.15,108.56L291.29,109.23L289.17,105.35L284.13,106.50L281.64,103.90L281.29,95.39L285.86,96.40L285.99,100.05L290.87,97.95L291.09,94.50L288.36,96.26L278.90,91.44L274.08,93.62L263.04,90.44L261.67,94.56L248.78,86.05Z M264.21,-0.06L264.54,6.47L268.47,9.29L275.82,6.62L274.53,4.03L276.96,-0.10L265.90,2.16L264.21,-0.06Z M217.89,27.23L219.03,32.03L220.66,30.75L217.89,27.23Z M300.59,127.04L306.62,127.69L310.78,132.32L310.23,125.51L306.93,121.36L300.59,127.04Z M298.68,115.67L296.10,118.12L288.80,119.63L298.01,127.25L298.68,115.67Z M301.25,8.26L303.30,-0.03L289.14,-0.05L291.27,3.33L298.62,1.16L301.25,8.26Z M312.70,13.81L311.16,9.37L310.39,8.56L308.66,11.99L312.70,13.81Z M316.04,22.17L316.69,16.67L314.23,16.15L316.04,22.17Z M316.26,38.35L311.21,36.75L310.29,40.83L315.36,40.40L316.26,38.35Z M319.32,52.26L321.41,48.70L328.87,48.93L335.27,54.02L336.30,51.41L335.79,48.42L330.32,49.24L328.54,46.90L330.05,42.66L325.35,46.34L321.26,45.77L324.17,43.10L323.35,40.77L318.33,44.84L319.32,52.26Z M317.22,56.77L322.50,58.13L318.52,62.40L332.43,69.04L329.09,72.25L332.96,73.49L334.72,69.87L339.92,73.50L338.56,76.01L342.16,82.16L348.92,83.39L349.78,81.59L338.81,67.25L334.62,64.22L331.78,67.06L321.76,53.93L317.22,56.77Z M300.52,71.77L309.14,71.51L309.69,65.32L304.66,67.74L303.74,63.77L299.36,68.46L300.52,71.77Z M311.51,81.41L310.43,77.06L304.26,73.61L293.26,78.71L293.35,82.07L290.33,84.30L285.27,78.54L278.85,76.36L277.45,72.80L273.08,76.87L279.64,79.42L277.50,85.58L275.29,81.17L262.06,77.99L263.67,81.89L281.33,89.59L286.68,86.83L294.32,89.07L295.89,87.52L292.98,84.74L302.77,77.94L306.25,88.21L311.51,81.41Z M315.08,86.60L318.37,88.07L318.93,82.90L326.95,87.86L327.16,84.68L319.30,78.15L315.08,86.60Z M258.55,0.02L253.02,0.06L253.17,4.26L258.55,0.02Z M292.09,14.24L292.17,16.22L302.27,17.33L302.49,15.22L292.09,14.24Z M298.74,22.70L293.74,18.50L293.01,22.62L295.72,21.89L296.61,25.25L302.62,24.12L304.55,17.97L298.74,22.70Z M311.73,32.23L309.60,26.45L305.56,29.23L308.13,33.29L311.73,32.23Z M303.48,37.98L291.51,35.15L294.13,38.29L302.89,39.22L303.95,44.45L308.27,45.62L303.48,37.98Z M299.63,43.68L295.70,40.27L293.71,43.32L296.50,47.75L299.63,43.68Z M279.47,34.86L281.64,29.88L277.49,32.42L279.47,34.86Z M260.68,56.94L264.94,57.05L269.51,59.80L268.68,56.45L260.68,56.94Z M312.62,51.12L306.68,55.24L315.05,53.65L312.62,51.12Z M305.10,98.49L302.66,91.25L300.82,87.41L301.78,97.79L305.10,98.49Z M325.18,22.95L322.06,25.89L325.03,27.21L325.18,22.95Z M342.04,19.79L337.36,21.85L342.69,25.83L342.04,19.79Z M327.61,18.65L326.28,8.64L325.42,14.28L323.73,13.13L322.39,16.02L327.61,18.65Z M338.88,2.26L336.47,1.75L335.59,7.27L339.14,11.21L343.09,11.01L341.73,15.78L343.95,19.14L344.68,11.47L339.01,6.49L338.88,2.26Z M343.76,-0.04L344.61,4.17L348.09,4.59L347.48,10.67L351.52,7.66L358.35,13.01L362.14,5.62L359.83,5.03L360.34,2.45L368.63,2.30L368.42,8.18L376.87,-0.04L343.76,-0.04Z" data-region="77c. North Cascades Subalpine/Alpine" /><path class="region" d="M388.76,-0.02L376.87,-0.04L368.42,8.18L368.63,2.30L360.34,2.45L359.83,5.03L362.14,5.62L358.35,13.01L351.52,7.66L347.48,10.67L348.09,4.59L344.61,4.17L343.76,-0.04L303.30,-0.03L310.91,4.11L312.90,19.20L316.04,22.17L314.23,16.15L316.69,16.67L318.18,24.89L316.52,31.06L309.30,34.14L316.26,38.35L318.33,44.84L323.35,40.77L324.17,43.10L321.26,45.77L325.35,46.34L330.05,42.66L328.54,46.90L330.32,49.24L335.79,48.42L335.27,54.02L328.87,48.93L321.41,48.70L319.51,54.35L324.84,57.00L325.24,61.08L331.78,67.06L334.62,64.22L338.81,67.25L345.93,77.90L348.49,71.41L345.32,64.42L326.41,52.05L337.21,56.57L338.63,51.02L341.71,50.51L341.93,47.51L338.30,47.79L340.86,44.02L338.58,39.77L330.79,38.01L332.02,34.64L328.56,30.88L336.04,36.46L338.62,33.68L342.21,35.71L342.76,33.17L340.25,32.56L341.48,29.31L344.89,31.45L346.09,26.26L352.05,30.74L355.59,18.43L361.67,26.18L360.31,32.26L364.77,35.55L361.61,43.05L363.27,46.22L371.09,46.98L371.50,52.79L381.01,51.27L373.63,37.74L378.57,28.12L384.27,25.46L385.83,3.28L388.76,-0.02Z M325.18,22.95L325.03,27.21L322.06,25.89L325.18,22.95Z M337.36,21.85L342.04,19.79L342.69,25.83L337.36,21.85Z M326.28,8.64L327.61,18.65L322.39,16.02L323.73,13.13L325.42,14.28L326.28,8.64Z M338.88,2.26L339.01,6.49L344.68,11.47L343.95,19.14L341.73,15.78L343.09,11.01L339.14,11.21L335.59,7.27L336.47,1.75L338.88,2.26Z" data-region="77d. Pasayten/Sawtooth Highlands" /><path class="region" d="M369.51,106.28L368.63,102.71L371.22,103.17L375.73,96.47L371.73,89.12L363.10,82.89L354.83,68.74L348.06,66.54L350.03,63.70L359.24,65.29L355.73,59.84L347.37,60.40L348.94,58.28L346.68,54.74L347.32,49.71L343.79,43.43L354.39,40.16L368.39,57.66L368.38,62.27L362.98,67.80L362.62,72.57L374.69,77.84L381.44,77.37L384.29,71.70L381.00,66.65L393.29,58.97L394.44,52.33L398.02,50.11L392.65,49.17L390.81,45.10L384.43,42.46L387.08,38.94L394.97,43.24L401.75,43.08L401.48,39.10L397.87,37.49L403.25,32.29L396.54,15.06L401.55,12.50L408.75,14.70L403.88,2.48L398.46,1.91L392.03,6.12L388.71,0.89L385.83,3.28L384.27,25.46L378.57,28.12L373.63,37.74L381.01,51.27L371.50,52.79L371.09,46.98L363.27,46.22L361.61,43.05L364.77,35.55L360.31,32.26L361.67,26.18L355.59,18.43L352.05,30.74L346.09,26.26L344.89,31.45L341.48,29.31L340.25,32.56L342.76,33.17L342.21,35.71L338.62,33.68L336.04,36.46L328.56,30.88L332.02,34.64L330.79,38.01L338.58,39.77L340.86,44.02L338.30,47.79L341.93,47.51L341.71,50.51L338.63,51.02L337.21,56.57L326.41,52.05L345.32,64.42L348.49,71.41L345.93,77.90L349.78,81.59L348.92,83.39L360.80,91.41L364.04,103.80L369.51,106.28Z" data-region="77e. Okanogan Pine/Fir Hills" /><path class="region" d="M363.41,100.76L360.80,91.41L356.18,86.41L345.07,82.17L338.23,84.59L343.19,100.96L338.29,102.29L323.93,92.49L324.41,96.72L331.49,101.61L331.20,117.27L327.92,118.02L339.67,135.07L346.31,129.56L346.47,124.54L340.75,121.12L348.53,120.31L349.21,114.75L356.31,110.61L357.69,106.07L362.50,105.75L353.62,102.87L353.05,97.15L363.41,100.76Z" data-region="77f. Chelan Tephra Hills" /><path class="region" d="M304.86,137.29L308.19,135.57L311.13,138.02L307.86,142.08L296.75,141.65L302.96,145.11L309.45,143.75L310.65,146.06L307.58,147.67L310.97,148.43L319.70,144.58L315.04,133.54L315.11,123.17L310.74,121.02L309.76,92.44L306.87,91.81L304.37,93.19L307.90,100.35L307.03,104.92L304.17,105.50L294.68,95.44L299.29,105.89L294.66,105.33L294.11,107.50L299.46,110.71L294.96,112.54L301.07,113.98L310.23,125.51L310.78,132.32L306.62,127.69L300.59,127.04L304.26,131.33L304.86,137.29Z M307.55,57.44L309.14,71.51L304.99,72.34L310.43,77.06L314.71,85.92L319.30,78.15L327.16,84.68L326.95,87.86L318.93,82.90L318.37,88.07L315.08,86.60L312.98,90.46L313.37,94.00L327.92,118.02L331.20,117.27L331.49,101.61L324.41,96.72L323.93,92.49L338.29,102.29L343.19,100.96L338.23,84.59L345.07,82.17L342.16,82.16L338.56,76.01L339.92,73.50L334.72,69.87L332.96,73.49L329.09,72.25L332.43,69.04L318.52,62.40L322.50,58.13L320.28,56.21L307.55,57.44Z" data-region="77g. Wenatchee/Chelan Highlands" /><path class="region" d="M337.83,134.56L317.49,99.09L309.71,96.45L310.74,121.02L315.11,123.17L315.04,133.54L319.70,144.58L318.73,146.84L298.00,147.62L295.18,143.51L296.16,148.15L292.55,149.90L292.19,155.34L285.30,150.88L286.06,144.63L282.30,144.83L281.45,162.88L278.30,161.08L275.45,163.52L289.81,171.49L318.21,166.36L322.34,161.36L321.53,154.87L338.35,156.46L340.83,154.35L328.88,137.06L337.83,134.56Z" data-region="77h. Chiwaukum Hills and Lowlands" /><path class="region" d="M126.51,120.88L120.36,119.71L119.15,117.66L122.12,115.71L116.79,113.35L120.16,110.55L122.57,114.20L133.03,115.59L132.14,111.61L138.09,110.02L137.21,102.50L131.25,98.44L118.46,102.73L117.86,99.32L124.43,97.52L106.40,96.17L105.69,94.05L111.72,92.79L109.50,91.03L98.80,91.46L96.65,93.90L104.06,98.34L108.46,105.80L104.82,109.69L102.60,102.86L97.78,106.14L94.65,98.88L82.79,95.16L81.03,96.96L80.32,102.52L86.89,102.06L79.89,113.36L83.06,113.19L83.06,116.88L91.33,113.34L87.02,120.92L95.62,121.57L94.83,125.77L99.19,124.42L99.65,127.85L105.69,124.18L111.37,124.48L107.89,127.96L113.31,127.85L115.08,135.13L130.50,125.19L130.08,122.07L126.92,125.00L116.06,123.56L126.51,120.88Z M120.67,137.48L123.83,132.49L120.44,133.60L120.67,137.48Z" data-region="77i. High Olympics" /><path class="region" d="M340.83,154.35L338.35,156.46L321.53,154.87L322.34,161.36L318.21,166.36L289.84,173.32L298.62,186.92L293.77,191.21L290.03,190.05L287.78,184.23L274.99,177.97L273.52,179.54L278.95,182.64L280.05,187.15L283.51,186.13L282.95,189.76L284.92,190.87L283.47,196.74L285.46,200.72L279.13,199.84L281.71,207.21L290.58,210.53L288.62,213.14L276.31,214.31L276.31,217.10L271.76,219.20L288.35,222.16L289.30,224.66L286.66,227.09L281.88,227.33L287.17,242.55L281.69,249.96L284.90,251.82L283.19,258.17L274.77,255.53L270.92,247.63L266.59,250.84L269.85,254.25L263.13,269.47L264.32,275.76L260.08,282.02L263.65,284.91L270.51,281.19L273.79,284.44L272.61,291.65L279.72,292.59L297.67,284.99L305.84,288.64L324.46,287.25L333.61,279.66L339.31,280.10L340.38,275.55L330.42,276.15L317.19,272.50L307.07,259.01L308.29,254.87L303.70,254.16L299.89,250.01L301.56,247.69L292.79,238.87L297.79,234.99L296.24,226.25L300.62,221.53L294.56,217.19L298.31,206.86L310.28,204.74L306.44,196.04L310.44,191.56L307.09,174.88L308.44,170.08L318.22,168.14L349.54,173.54L347.47,155.91L340.83,154.35Z" data-region="9a. Yakima Plateau and Slopes" /><path class="region" d="M236.86,297.10L241.27,289.09L249.63,286.61L252.38,281.11L254.70,285.03L257.63,281.25L260.08,282.02L264.32,275.76L263.13,269.47L269.85,254.25L266.59,250.84L270.92,247.63L274.77,255.53L283.19,258.17L284.90,251.82L281.69,249.96L287.17,242.55L281.88,227.33L289.30,224.66L288.35,222.16L271.76,219.20L276.31,217.10L276.31,214.31L288.62,213.14L290.58,210.53L281.71,207.21L279.13,199.84L285.46,200.72L283.47,196.74L284.92,190.87L282.95,189.76L283.51,186.13L280.05,187.15L278.95,182.64L273.52,179.54L274.99,177.97L287.78,184.23L290.03,190.05L293.77,191.21L298.62,186.92L289.84,173.32L295.10,170.22L289.81,171.49L278.64,165.01L287.97,177.65L286.21,180.27L272.18,176.58L269.93,183.20L276.05,186.74L265.59,189.20L271.69,190.69L267.27,198.79L272.42,198.08L275.31,204.14L266.99,219.24L271.36,225.58L269.21,227.14L271.06,231.55L266.15,238.34L270.23,241.00L265.60,242.11L259.72,248.61L263.87,258.77L260.02,267.29L242.04,268.96L240.61,283.54L236.05,286.78L234.38,294.35L236.86,297.10Z" data-region="9b. Grand Fir Mixed Forest" /><path class="region" d="M276.14,307.86L276.04,305.45L284.34,303.48L288.11,293.11L292.39,295.43L298.87,287.69L304.40,292.07L316.14,292.05L321.43,296.35L328.78,291.15L335.61,292.34L336.85,280.56L333.61,279.66L324.46,287.25L305.84,288.64L297.67,284.99L279.72,292.59L272.61,291.65L273.79,284.44L270.51,281.19L263.65,284.91L257.63,281.25L254.70,285.03L252.38,281.11L249.63,286.61L241.27,289.09L236.86,297.10L242.51,304.14L250.96,302.75L276.14,307.86Z" data-region="9c. Oak/Conifer Foothills" /></svg>