<svg xmlns="http://www.w3.org/2000/svg" aria-hidden="true" viewBox="0 0 600 320"><style>.region { fill:#f4f4f0; stroke:#888; stroke-width:0.5 }</style><path class="region" d="M419.71,0.12L411.64,10.11L426.41,29.86L407.61,36.83L423.80,46.15L405.06,44.65L427.35,59.45L410.04,58.88L424.53,74.02L417.83,75.78L420.21,80.00L454.56,71.78L452.47,90.85L444.91,96.34L462.28,99.83L466.26,94.51L487.20,107.02L501.56,96.95L515.45,109.70L542.20,104.73L566.25,135.06L590.92,139.37L589.20,244.75L596.84,263.68L584.01,268.99L561.51,258.53L562.30,251.03L552.08,244.03L547.78,252.20L537.77,247.25L521.00,258.18L506.45,270.14L506.88,277.41L399.37,284.35L351.01,302.81L318.91,300.97L277.40,313.85L275.77,305.62L284.61,303.27L288.11,293.11L295.61,295.52L300.32,287.32L323.24,296.74L335.96,292.23L340.26,278.73L317.19,272.50L292.48,237.88L301.10,221.99L294.20,217.66L302.46,206.38L298.55,202.94L310.65,204.52L307.56,192.58L316.25,189.06L308.51,185.64L307.01,170.76L348.68,175.32L347.88,156.09L337.05,151.79L328.56,137.33L346.31,129.56L340.51,121.30L348.28,120.67L356.09,105.88L365.51,107.44L353.05,97.15L368.93,106.66L368.49,97.23L375.70,97.65L347.84,66.24L359.56,62.74L347.05,62.05L343.55,43.73L350.29,36.75L367.12,54.09L363.32,74.98L381.44,77.37L381.50,65.18L398.72,51.27L384.22,41.64L401.31,44.13L397.87,37.49L403.25,32.29L396.00,15.98L408.70,15.34L404.59,2.73L392.03,6.12L388.76,-0.01L419.71,0.12Z" data-region="Columbia Plateau" /><path class="region" d="M588.48,156.05L588.86,160.80L587.39,160.68L588.48,156.05Z M590.86,139.32L566.25,135.06L542.20,104.73L515.45,109.70L501.56,96.95L487.20,107.02L466.26,94.51L462.28,99.83L444.91,96.34L452.47,90.85L454.56,71.78L420.21,80.00L417.83,75.78L424.53,74.02L410.04,58.88L427.35,59.45L405.06,44.65L423.80,46.15L407.61,36.83L426.43,29.09L411.86,7.48L419.72,-0.01L591.50,0.07L590.86,139.32Z" data-region="Columbia Mountains/Northern Rockies" /><path class="region" d="M123.30,135.82L120.44,133.60L123.83,132.49L123.30,135.82Z" data-region="North Cascades" /><path class="region" d="M81.07,95.87L107.31,110.62L96.15,92.57L109.50,91.03L106.40,96.17L124.41,96.61L116.73,100.04L120.94,103.75L131.25,98.44L138.44,109.72L131.44,116.41L116.79,113.35L127.05,119.36L115.75,125.19L131.34,123.47L114.19,135.02L118.25,129.00L109.34,130.80L111.53,122.11L99.65,127.85L86.89,120.73L92.56,113.74L77.88,112.56L89.72,104.36L79.77,102.24L81.07,95.87Z" data-region="North Cascades" /><path class="region" d="M388.79,0.13L392.03,6.12L404.59,2.73L408.70,15.34L396.00,15.98L403.25,32.29L397.87,37.49L401.31,44.13L384.22,41.64L398.72,51.27L381.50,65.18L381.44,77.37L363.32,74.98L367.12,54.09L350.29,36.75L343.55,43.73L347.05,62.05L359.56,62.74L347.84,66.24L356.41,69.73L375.53,98.10L368.49,97.23L368.45,106.65L353.05,97.15L365.51,107.44L356.09,105.88L348.28,120.67L340.51,121.30L346.31,129.56L328.56,137.33L339.54,155.99L322.23,154.48L318.21,166.36L298.94,170.48L287.05,170.87L235.74,144.44L230.14,112.48L243.92,106.70L222.97,91.25L221.16,83.13L226.39,81.77L216.77,81.14L217.09,72.45L206.27,63.02L210.93,61.92L200.07,54.40L213.71,44.50L200.34,43.54L188.92,22.96L202.36,-0.22L388.79,0.13Z" data-region="North Cascades" /><path class="region" d="M547.31,245.71L563.07,252.24L561.51,258.53L585.73,269.73L598.33,260.32L595.30,269.54L600.30,277.89L506.88,277.41L506.45,270.14L531.77,256.03L534.65,248.13L547.78,252.20L547.31,245.71Z" data-region="Blue Mountains" /><path class="region" d="M168.06,170.43L167.36,170.38L167.92,169.48L168.06,170.43Z" data-region="Strait of Georgia/Puget Lowland" /><path class="region" d="M159.48,170.89L164.66,171.06L162.51,173.52L159.48,170.89Z" data-region="Strait of Georgia/Puget Lowland" /><path class="region" d="M144.59,167.69L144.42,167.97L144.37,167.78L144.59,167.69Z" data-region="Strait of Georgia/Puget Lowland" /><path class="region" d="M160.57,165.96L166.57,165.02L167.00,166.48L160.57,165.96Z" data-region="Strait of Georgia/Puget Lowland" /><path class="region" d="M145.69,166.92L147.62,167.11L148.14,169.44L145.69,166.92Z" data-region="Strait of Georgia/Puget Lowland" /><path class="region" d="M169.27,164.62L168.10,160.24L170.97,163.91L169.27,164.62Z" data-region="Strait of Georgia/Puget Lowland" /><path class="region" d="M152.06,160.25L152.52,161.17L152.01,161.15L152.06,160.25Z" data-region="Strait of Georgia/Puget Lowland" /><path class="region" d="M164.37,154.66L165.32,154.21L165.76,154.68L164.37,154.66Z" data-region="Strait of Georgia/Puget Lowland" /><path class="region" d="M151.41,157.18L152.13,165.67L150.95,168.53L149.12,169.92L146.13,159.47L151.41,157.18Z" data-region="Strait of Georgia/Puget Lowland" /><path class="region" d="M152.82,154.45L153.34,155.40L152.55,155.83L152.82,154.45Z" data-region="Strait of Georgia/Puget Lowland" /><path class="region" d="M153.38,153.44L152.86,153.75L153.46,152.92L153.38,153.44Z" data-region="Strait of Georgia/Puget Lowland" /><path class="region" d="M180.84,139.95L187.36,149.16L176.36,154.10L176.89,142.96L180.84,139.95Z" data-region="Strait of Georgia/Puget Lowland" /><path class="region" d="M178.62,136.02L178.35,134.50L179.33,134.94L178.62,136.02Z" data-region="Strait of Georgia/Puget Lowland" /><path class="region" d="M175.61,120.01L176.48,129.83L179.52,131.06L171.96,129.52L175.61,120.01Z" data-region="Strait of Georgia/Puget Lowland" /><path class="region" d="M170.10,98.59L175.91,100.59L179.93,115.63L173.31,113.74L171.00,121.18L166.26,115.94L169.64,132.39L163.73,124.88L161.98,128.18L168.53,132.31L162.81,136.30L173.66,130.34L178.12,137.52L172.83,160.52L162.97,158.87L168.38,150.60L168.02,146.89L159.93,153.01L157.29,169.47L152.75,162.34L157.45,153.55L153.09,147.42L144.78,166.00L134.70,165.50L138.72,160.77L132.75,165.71L144.64,166.64L142.77,169.27L136.40,170.63L133.48,172.44L138.60,170.93L138.32,173.54L135.27,173.93L133.65,175.08L133.86,176.46L146.12,168.92L138.67,178.79L129.12,174.89L132.32,171.53L122.99,166.13L122.49,174.37L102.78,175.36L97.51,162.72L116.88,157.79L116.21,148.88L128.65,143.36L121.71,139.15L136.42,135.87L127.99,150.80L129.79,154.93L132.03,151.87L138.02,152.37L151.89,144.91L130.93,148.84L142.59,130.81L158.49,123.43L169.62,105.72L171.74,105.63L171.71,109.87L172.94,108.93L170.10,98.59Z" data-region="Strait of Georgia/Puget Lowland" /><path class="region" d="M190.33,90.74L191.35,90.88L192.73,91.96L190.33,90.74Z" data-region="Strait of Georgia/Puget Lowland" /><path class="region" d="M163.40,82.97L165.06,89.57L163.67,91.73L160.77,90.10L159.01,85.84L162.73,90.98L163.40,82.97Z" data-region="Strait of Georgia/Puget Lowland" /><path class="region" d="M145.24,80.22L146.88,80.82L144.03,81.49L145.24,80.22Z" data-region="Strait of Georgia/Puget Lowland" /><path class="region" d="M97.62,78.57L121.16,81.78L128.47,76.47L129.14,76.19L130.42,76.07L132.20,75.41L125.94,78.90L139.58,90.34L136.87,85.03L146.33,83.65L148.48,93.46L153.09,88.45L148.74,82.68L158.59,79.13L155.03,84.52L169.55,102.89L154.15,121.86L156.12,110.60L154.09,106.98L154.66,107.43L154.67,106.01L154.10,105.41L151.82,112.89L145.23,110.27L144.95,101.58L118.15,102.62L124.41,96.61L106.40,96.17L115.34,92.42L94.54,83.67L97.62,78.57Z M110.26,86.17L110.09,89.28L113.88,88.72L110.26,86.17Z" data-region="Strait of Georgia/Puget Lowland" /><path class="region" d="M171.84,55.89L173.24,55.27L173.25,55.76L171.84,55.89Z" data-region="Strait of Georgia/Puget Lowland" /><path class="region" d="M167.85,55.25L168.03,55.27L167.91,55.30L167.85,55.25Z" data-region="Strait of Georgia/Puget Lowland" /><path class="region" d="M166.33,55.29L177.48,64.76L160.11,71.39L169.75,73.22L174.66,91.03L175.95,83.51L187.21,89.37L186.97,101.30L179.50,92.78L174.28,95.50L169.36,78.18L157.37,71.73L166.33,55.29Z" data-region="Strait of Georgia/Puget Lowland" /><path class="region" d="M152.35,46.90L153.29,47.18L152.52,47.66L152.35,46.90Z" data-region="Strait of Georgia/Puget Lowland" /><path class="region" d="M153.17,47.97L156.37,45.21L153.74,47.99L153.17,47.97Z" data-region="Strait of Georgia/Puget Lowland" /><path class="region" d="M171.84,41.79L166.51,43.58L166.30,38.37L167.02,38.07L171.84,41.79Z" data-region="Strait of Georgia/Puget Lowland" /><path class="region" d="M139.55,42.46L139.84,43.05L139.26,42.63L139.55,42.46Z" data-region="Strait of Georgia/Puget Lowland" /><path class="region" d="M148.77,39.52L150.37,49.89L154.19,53.49L144.10,49.44L148.77,39.52Z" data-region="Strait of Georgia/Puget Lowland" /><path class="region" d="M152.75,39.56L157.35,40.87L154.43,43.33L152.75,39.56Z" data-region="Strait of Georgia/Puget Lowland" /><path class="region" d="M161.12,42.54L162.78,38.02L164.33,39.13L165.00,39.84L165.05,40.12L161.12,42.54Z" data-region="Strait of Georgia/Puget Lowland" /><path class="region" d="M164.63,34.22L165.92,36.10L162.73,35.04L164.63,34.22Z" data-region="Strait of Georgia/Puget Lowland" /><path class="region" d="M143.84,41.93L142.51,37.43L147.31,38.90L143.84,41.93Z" data-region="Strait of Georgia/Puget Lowland" /><path class="region" d="M139.70,36.97L140.64,37.60L139.43,37.46L139.70,36.97Z" data-region="Strait of Georgia/Puget Lowland" /><path class="region" d="M168.25,25.81L168.72,28.33L166.39,26.59L168.25,25.81Z" data-region="Strait of Georgia/Puget Lowland" /><path class="region" d="M127.15,35.45L127.88,35.61L127.10,35.51L127.15,35.45Z" data-region="Strait of Georgia/Puget Lowland" /><path class="region" d="M128.58,34.80L141.56,43.14L138.26,46.78L142.81,50.83L129.02,45.49L128.58,34.80Z" data-region="Strait of Georgia/Puget Lowland" /><path class="region" d="M125.17,36.34L126.61,38.34L124.85,38.22L125.17,36.34Z" data-region="Strait of Georgia/Puget Lowland" /><path class="region" d="M130.64,33.87L130.42,33.02L131.94,33.90L130.64,33.87Z" data-region="Strait of Georgia/Puget Lowland" /><path class="region" d="M161.48,23.24L168.21,29.59L169.59,33.25L161.48,23.24Z" data-region="Strait of Georgia/Puget Lowland" /><path class="region" d="M144.79,26.80L149.30,26.56L159.49,31.38L152.80,36.96L146.77,28.29L149.56,37.48L137.88,35.93L144.79,26.80Z" data-region="Strait of Georgia/Puget Lowland" /><path class="region" d="M136.93,26.15L138.37,29.46L134.55,27.82L136.93,26.15Z" data-region="Strait of Georgia/Puget Lowland" /><path class="region" d="M147.49,23.01L147.44,22.92L147.58,22.98L147.49,23.01Z" data-region="Strait of Georgia/Puget Lowland" /><path class="region" d="M125.97,31.64L124.24,28.76L127.62,30.10L125.97,31.64Z" data-region="Strait of Georgia/Puget Lowland" /><path class="region" d="M147.96,22.61L148.18,22.89L147.65,22.49L147.96,22.61Z" data-region="Strait of Georgia/Puget Lowland" /><path class="region" d="M148.45,22.52L148.30,22.62L148.09,22.38L148.45,22.52Z" data-region="Strait of Georgia/Puget Lowland" /><path class="region" d="M147.62,22.43L147.51,22.45L147.40,22.33L147.62,22.43Z" data-region="Strait of Georgia/Puget Lowland" /><path class="region" d="M145.81,22.64L146.25,22.65L146.35,22.81L145.81,22.64Z" data-region="Strait of Georgia/Puget Lowland" /><path class="region" d="M148.68,21.81L148.60,21.86L148.56,21.79L148.68,21.81Z" data-region="Strait of Georgia/Puget Lowland" /><path class="region" d="M148.48,21.79L148.41,21.78L148.46,21.75L148.48,21.79Z" data-region="Strait of Georgia/Puget Lowland" /><path class="region" d="M148.04,21.83L147.94,21.85L147.93,21.81L148.04,21.83Z" data-region="Strait of Georgia/Puget Lowland" /><path class="region" d="M149.16,21.79L148.59,21.70L148.55,21.66L149.16,21.79Z" data-region="Strait of Georgia/Puget Lowland" /><path class="region" d="M149.02,21.22L149.06,21.32L148.98,21.23L149.02,21.22Z" data-region="Strait of Georgia/Puget Lowland" /><path class="region" d="M146.55,23.01L148.44,21.59L148.74,23.29L146.55,23.01Z" data-region="Strait of Georgia/Puget Lowland" /><path class="region" d="M157.91,0.62L157.91,0.82L157.75,0.70L157.91,0.62Z" data-region="Strait of Georgia/Puget Lowland" /><path class="region" d="M209.54,-0.18L195.26,4.82L195.66,15.82L188.92,22.96L200.34,43.54L213.71,44.50L200.07,54.40L210.93,61.92L206.27,63.02L217.09,72.45L216.77,81.14L226.39,81.77L221.16,83.13L222.97,91.25L243.92,106.70L230.14,112.48L236.37,143.99L209.41,137.75L227.83,146.69L221.62,152.53L224.73,170.07L203.71,179.44L193.87,197.44L180.64,205.14L151.83,199.03L165.04,208.49L158.08,210.76L161.75,215.56L178.44,221.84L166.28,240.45L167.95,250.83L153.39,257.36L151.69,263.98L158.45,265.59L153.56,271.53L160.02,271.70L154.79,275.87L157.56,281.88L138.96,263.80L147.27,254.44L141.14,249.46L145.34,249.29L139.98,239.39L141.97,226.74L126.97,221.03L138.80,217.48L137.35,205.15L120.00,199.91L132.26,197.29L145.58,171.39L146.75,180.92L146.98,171.96L151.90,169.77L150.43,173.83L153.33,176.42L153.96,168.50L160.64,175.66L160.17,178.06L160.21,178.13L160.54,178.13L160.45,178.19L160.33,178.20L160.29,178.23L160.25,178.33L160.25,178.38L160.28,178.42L170.92,168.61L174.17,155.58L188.47,160.76L182.00,156.71L191.12,152.62L183.79,131.69L190.20,129.40L182.63,123.75L192.39,97.26L204.31,90.96L189.67,83.43L185.93,71.16L179.39,76.24L188.62,87.29L176.93,80.19L175.45,69.50L185.58,69.41L188.04,63.95L175.17,57.75L174.20,51.02L165.94,54.75L162.45,46.84L179.87,50.71L173.20,38.57L183.46,37.04L176.95,30.86L178.95,22.90L171.09,19.61L166.31,26.32L155.62,9.90L158.99,6.14L153.41,5.10L158.31,-0.19L209.54,-0.18Z M133.09,-0.18L138.30,2.19L133.60,2.62L133.09,-0.18Z" data-region="Strait of Georgia/Puget Lowland" /><path class="region" d="M64.15,235.06L68.64,234.61L68.79,239.43L64.15,235.06Z" data-region="Coast Range" /><path class="region" d="M112.81,86.80L109.15,89.01L108.97,86.64L112.81,86.80Z" data-region="Coast Range" /><path class="region" d="M10.20,56.53L107.59,86.48L115.14,92.80L96.15,92.57L107.80,110.24L101.08,100.81L97.37,106.03L82.79,95.16L79.77,102.24L89.72,104.36L77.88,112.56L92.56,113.74L86.89,120.73L99.65,127.85L111.53,122.11L109.34,130.80L113.72,127.74L118.25,129.00L114.19,135.02L131.34,123.47L115.75,125.19L127.05,119.36L116.79,113.35L131.44,116.41L137.21,102.50L145.18,101.71L151.32,114.81L147.27,125.23L121.42,139.46L128.65,143.36L116.21,148.88L116.63,158.01L101.50,158.67L97.42,166.30L103.74,176.28L122.49,174.37L122.99,166.13L138.51,177.73L132.55,196.97L120.00,200.44L137.35,205.15L138.80,217.48L126.88,220.68L142.11,227.06L145.76,261.71L111.87,263.92L104.05,252.69L86.40,248.83L73.76,255.28L64.22,248.48L58.21,252.74L59.94,217.78L62.92,243.20L67.81,243.94L69.22,235.04L70.10,237.45L75.14,238.87L76.30,241.51L77.51,243.22L77.81,242.76L74.84,237.73L68.59,233.58L72.73,229.80L67.29,218.60L68.74,220.31L70.93,220.70L70.74,221.66L71.36,222.19L72.08,222.21L69.70,215.16L76.48,211.94L57.16,209.30L53.81,193.69L62.41,200.23L60.81,194.78L65.63,192.11L73.65,190.45L78.95,187.67L55.08,181.12L56.24,190.15L50.69,191.78L50.61,172.63L32.14,116.68L13.11,95.53L8.84,77.32L14.53,62.39L10.20,56.53Z M120.44,133.60L123.30,135.82L123.83,132.49L120.44,133.60Z M139.87,265.26L140.26,265.61L140.40,265.73L140.26,265.61L139.87,265.26L139.77,265.17L139.87,265.26Z M142.66,267.67L142.72,267.71L142.50,267.53L142.66,267.67Z M142.78,267.75L142.85,267.79L143.33,267.99L142.78,267.75Z M144.54,268.52L144.63,268.56L144.37,268.45L144.54,268.52Z M144.96,268.70L147.23,269.71L147.56,270.20L144.96,268.70Z M148.18,271.11L148.58,271.69L147.95,270.77L148.18,271.11Z M148.60,271.73L148.68,271.84L148.57,271.69L148.60,271.73Z M148.87,272.76L148.93,273.06L148.81,272.41L148.87,272.76Z M149.20,274.56L149.22,274.58L149.03,273.64L149.20,274.56Z M149.25,274.60L149.45,274.77L149.60,274.92L149.25,274.60Z M149.80,275.11L150.86,276.12L150.88,276.16L149.80,275.11Z M151.47,277.47L151.59,277.73L151.26,277.01L151.47,277.47Z" data-region="Coast Range" /><path class="region" d="M151.71,277.95L176.62,285.57L181.41,305.89L200.85,317.25L157.85,309.17L151.71,277.95Z" data-region="Willamette Valley" /><path class="region" d="M213.08,136.96L228.72,137.66L278.64,165.01L288.22,177.04L272.18,176.58L269.45,182.61L277.71,186.87L263.09,191.07L271.53,190.26L266.39,197.53L278.59,202.59L265.90,216.96L271.59,225.20L265.55,237.98L270.81,242.14L259.88,248.00L260.86,266.13L241.33,270.14L233.90,293.41L244.89,304.40L200.68,317.49L201.54,312.65L181.41,305.89L176.62,285.57L154.79,276.83L160.02,271.70L153.56,271.53L158.45,265.59L151.69,263.98L153.39,257.36L167.95,250.83L166.28,240.45L178.44,221.84L161.75,215.56L158.08,210.76L164.87,208.22L151.56,199.82L161.81,196.84L180.64,205.14L193.87,197.44L203.71,179.44L224.73,170.07L221.62,152.53L227.83,146.69L220.25,146.99L213.08,136.96Z" data-region="Cascades" /><path class="region" d="M325.16,154.29L347.88,156.09L349.45,174.00L307.01,170.76L308.51,185.64L316.25,189.06L307.56,192.58L310.65,204.52L298.55,202.94L302.46,206.38L294.20,217.66L301.10,221.99L292.48,237.88L317.19,272.50L340.38,275.55L335.96,292.23L322.63,296.72L299.87,287.28L275.31,308.43L242.51,304.14L233.90,293.41L241.33,270.14L260.86,266.13L259.88,248.00L270.81,242.14L265.55,237.98L271.59,225.20L265.90,216.96L278.59,202.59L266.39,197.53L271.53,190.26L263.09,191.07L277.71,186.87L269.45,182.61L272.38,176.46L287.89,177.83L278.64,165.01L289.51,171.51L311.19,168.36L325.16,154.29Z" data-region="Eastern Cascades Slopes and Foothills" /></svg>